<svg width="35" height="35" viewBox="0 0 35 35" fill="none" xmlns="http://www.w3.org/2000/svg">
<path d="M26.4245 0H7.92736C3.5492 0 0 3.5492 0 7.92736V26.4246C0 30.8027 3.5492 34.3519 7.92736 34.3519H26.4245C30.8027 34.3519 34.3519 30.8027 34.3519 26.4246V7.92736C34.3519 3.5492 30.8027 0 26.4245 0Z" fill="#FFE2E2"/>
<path fill-rule="evenodd" clip-rule="evenodd" d="M14 18.6667C14.6188 18.6667 15.2123 18.9125 15.6499 19.3501C16.0875 19.7877 16.3333 20.3812 16.3333 21V25.6667C16.3333 26.2855 16.0875 26.879 15.6499 27.3166C15.2123 27.7542 14.6188 28 14 28H9.33333C8.71449 28 8.121 27.7542 7.68342 27.3166C7.24583 26.879 7 26.2855 7 25.6667V21C7 20.3812 7.24583 19.7877 7.68342 19.3501C8.121 18.9125 8.71449 18.6667 9.33333 18.6667H14ZM25.6667 18.6667C26.2855 18.6667 26.879 18.9125 27.3166 19.3501C27.7542 19.7877 28 20.3812 28 21V25.6667C28 26.2855 27.7542 26.879 27.3166 27.3166C26.879 27.7542 26.2855 28 25.6667 28H21C20.3812 28 19.7877 27.7542 19.3501 27.3166C18.9125 26.879 18.6667 26.2855 18.6667 25.6667V21C18.6667 20.3812 18.9125 19.7877 19.3501 19.3501C19.7877 18.9125 20.3812 18.6667 21 18.6667H25.6667ZM14 7C14.6188 7 15.2123 7.24583 15.6499 7.68342C16.0875 8.121 16.3333 8.71449 16.3333 9.33333V14C16.3333 14.6188 16.0875 15.2123 15.6499 15.6499C15.2123 16.0875 14.6188 16.3333 14 16.3333H9.33333C8.71449 16.3333 8.121 16.0875 7.68342 15.6499C7.24583 15.2123 7 14.6188 7 14V9.33333C7 8.71449 7.24583 8.121 7.68342 7.68342C8.121 7.24583 8.71449 7 9.33333 7H14ZM25.6667 7C26.2855 7 26.879 7.24583 27.3166 7.68342C27.7542 8.121 28 8.71449 28 9.33333V14C28 14.6188 27.7542 15.2123 27.3166 15.6499C26.879 16.0875 26.2855 16.3333 25.6667 16.3333H21C20.3812 16.3333 19.7877 16.0875 19.3501 15.6499C18.9125 15.2123 18.6667 14.6188 18.6667 14V9.33333C18.6667 8.71449 18.9125 8.121 19.3501 7.68342C19.7877 7.24583 20.3812 7 21 7H25.6667Z" fill="#CE5C5C"/>
</svg>
