<svg width="35" height="36" viewBox="0 0 35 36" fill="none" xmlns="http://www.w3.org/2000/svg">
<g clip-path="url(#clip0_161_1857)">
<path d="M26.6189 0.693665H8.1217C3.74354 0.693665 0.194336 4.24286 0.194336 8.62103V27.1182C0.194336 31.4964 3.74354 35.0456 8.1217 35.0456H26.6189C30.997 35.0456 34.5462 31.4964 34.5462 27.1182V8.62103C34.5462 4.24286 30.997 0.693665 26.6189 0.693665Z" fill="#FFE8F1"/>
<path d="M16.7094 8.62085C17.2778 8.62085 17.737 9.13856 17.737 9.77692V11.066C17.7883 11.0735 17.8365 11.0818 17.8879 11.0902C18.2283 11.1472 19.243 11.3311 19.6605 11.45C20.1808 11.6068 20.5436 12.2372 20.4023 12.855C20.2641 13.4727 19.7054 13.8485 19.1531 13.6931C18.8545 13.5739 17.9457 13.4366 17.586 13.3788C16.5552 13.2054 15.6721 13.2921 15.0653 13.5522C14.4782 13.8051 14.2345 14.1627 14.17 14.5637C14.1076 14.9503 14.1548 15.1707 14.2113 15.308C14.2721 15.4525 14.3905 15.6152 14.6266 15.7921C15.1488 16.1787 15.9451 16.4388 16.9792 16.7531L17.069 16.7821C17.9811 17.0602 19.0986 17.4034 19.927 18.0211C20.3798 18.3608 20.8069 18.8195 21.0702 19.4554C21.3367 20.0985 21.3946 20.8211 21.2725 21.558C21.0478 22.9634 20.1808 23.881 19.1628 24.3578C18.726 24.5603 18.2444 24.6903 17.737 24.7553V25.9619C17.737 26.6014 17.2778 27.118 16.7094 27.118C16.141 27.118 15.6817 26.6014 15.6817 25.9619V24.7011C15.6689 24.7011 15.6529 24.665 15.64 24.6938H15.6336C14.8533 24.5566 13.5646 24.1772 12.6954 23.7437C12.1767 23.4836 11.9433 22.8008 12.1738 22.2156C12.4044 21.6339 13.0117 21.3702 13.5013 21.6303C14.2014 21.9663 15.3061 22.295 15.9451 22.4071C16.9727 22.5804 17.8172 22.4793 18.3888 22.2192C18.9316 21.9699 19.1788 21.6086 19.2494 21.1751C19.3105 20.7886 19.2656 20.5682 19.2077 20.4309C19.1467 20.2864 19.0279 20.1237 18.7935 19.9468C18.27 19.5602 17.4737 19.3001 16.4396 18.9857L16.3497 18.9568C15.4377 18.6787 14.3196 18.3354 13.4905 17.7178C13.0373 17.3781 12.6128 16.9193 12.3492 16.2834C12.0817 15.6404 12.0236 14.9178 12.1478 14.1483C12.3752 12.743 13.275 11.8467 14.3318 11.3929C14.7499 11.2133 15.2033 11.0952 15.6817 11.0316V9.77692C15.6817 9.13856 16.141 8.62085 16.7094 8.62085Z" fill="#FF3C90" stroke="#FF3B90" stroke-width="1.0735"/>
</g>
<defs>
<clipPath id="clip0_161_1857">
<rect width="34.3519" height="34.3519" fill="white" transform="translate(0.194336 0.693665)"/>
</clipPath>
</defs>
</svg>
