<svg width="423" height="412" viewBox="0 0 423 412" fill="none" xmlns="http://www.w3.org/2000/svg">
<mask id="mask0_4501_79752" style="mask-type:luminance" maskUnits="userSpaceOnUse" x="5" y="0" width="413" height="412">
<path d="M417.284 0H5.71631V412H417.284V0Z" fill="white"/>
</mask>
<g mask="url(#mask0_4501_79752)">
<path d="M322.307 0H100.693C48.239 0 5.71631 42.5674 5.71631 95.0769V316.923C5.71631 369.432 48.239 412 100.693 412H322.307C374.761 412 417.284 369.432 417.284 316.923V95.0769C417.284 42.5674 374.761 0 322.307 0Z" fill="#F3DAFF"/>
<g clip-path="url(#clip0_4501_79752)">
<path fill-rule="evenodd" clip-rule="evenodd" d="M217.5 103C301.909 103 320 118.185 320 194.111C320 243.463 311.46 273.833 273.023 273.833C252.482 273.833 246.372 283.591 240.682 292.677C235.725 300.594 231.086 308 217.502 308C203.919 308 199.281 300.594 194.323 292.677C188.633 283.591 182.523 273.833 161.981 273.833C123.544 273.833 115 242.491 115 194.111C115 119.081 133.091 103 217.5 103ZM226.042 171.333C226.042 166.616 229.866 162.792 234.583 162.792H260.208C264.926 162.792 268.75 166.616 268.75 171.333C268.75 176.051 264.926 179.875 260.208 179.875H234.583C229.866 179.875 226.042 176.051 226.042 171.333ZM174.792 196.958C170.074 196.958 166.25 200.782 166.25 205.5C166.25 210.218 170.074 214.042 174.792 214.042H260.208C264.926 214.042 268.75 210.218 268.75 205.5C268.75 200.782 264.926 196.958 260.208 196.958H174.792Z" fill="#A21FDF"/>
</g>
</g>
<defs>
<clipPath id="clip0_4501_79752">
<rect width="205" height="205" fill="white" transform="translate(115 103)"/>
</clipPath>
</defs>
</svg>
