<svg width="36" height="35" viewBox="0 0 36 35" fill="none" xmlns="http://www.w3.org/2000/svg">
<path d="M27.2624 0.425537H8.76525C4.38709 0.425537 0.837891 3.97474 0.837891 8.3529V26.8501C0.837891 31.2282 4.38709 34.7774 8.76525 34.7774H27.2624C31.6406 34.7774 35.1898 31.2282 35.1898 26.8501V8.3529C35.1898 3.97474 31.6406 0.425537 27.2624 0.425537Z" fill="#DAECFF"/>
<path d="M23.2992 8.35296C23.2992 7.62546 22.7054 7.03174 21.978 7.03174C21.2505 7.03174 20.6567 7.62546 20.6567 8.35296V12.3166H23.2992V8.35296ZM25.281 13.6007H10.7475C10.3811 13.6007 10.0869 13.8949 10.0869 14.2614V15.5826C10.0869 15.949 10.3811 16.2432 10.7475 16.2432H11.4081V17.6016C11.4081 20.7395 13.6171 23.448 16.693 24.0756V28.1714H19.3355V24.0734C22.4114 23.448 24.6204 20.7395 24.6204 17.6016V16.2432H25.281C25.6474 16.2432 25.9416 15.949 25.9416 15.5826V14.2614C25.9416 13.9311 25.6485 13.6007 25.281 13.6007ZM15.3718 8.35296C15.3718 7.62546 14.7781 7.03174 14.0506 7.03174C13.3231 7.03174 12.7294 7.62546 12.7294 8.35296V12.3166H15.3718V8.35296Z" fill="#1D88FA"/>
</svg>
