<svg width="35" height="34" viewBox="0 0 35 34" fill="none" xmlns="http://www.w3.org/2000/svg">
<g clip-path="url(#clip0_161_1918)">
<mask id="mask0_161_1918" style="mask-type:luminance" maskUnits="userSpaceOnUse" x="0" y="0" width="35" height="34">
<path d="M34.1559 0.163086H0.726562V33.5924H34.1559V0.163086Z" fill="white"/>
</mask>
<g mask="url(#mask0_161_1918)">
<path d="M25.9766 0.162964H7.97617C3.7156 0.162964 0.261719 3.61684 0.261719 7.87742V25.8778C0.261719 30.1384 3.7156 33.5923 7.97617 33.5923H25.9766C30.2371 33.5923 33.691 30.1384 33.691 25.8778V7.87742C33.691 3.61684 30.2371 0.162964 25.9766 0.162964Z" fill="#CFF4FC"/>
<path d="M20.2113 14.5732C22.1602 16.5249 22.134 19.6547 20.2244 21.577C20.2212 21.5802 20.2179 21.5868 20.2113 21.59L18.0178 23.7832C16.0821 25.7185 12.9354 25.7185 10.9996 23.7832C9.06393 21.8478 9.06393 18.7018 10.9996 16.7664L12.2107 15.5556C12.5306 15.2358 13.0855 15.4479 13.1019 15.9015C13.1214 16.4792 13.2258 17.0601 13.4184 17.6214C13.4838 17.8108 13.438 18.0229 13.2944 18.1633L12.8668 18.5908C11.9528 19.5045 11.9234 20.996 12.8276 21.9196C13.7417 22.853 15.2464 22.8563 16.167 21.9359L18.3606 19.7428C19.2811 18.8225 19.2778 17.3342 18.3606 16.4205C18.2398 16.2997 18.119 16.205 18.0243 16.1398C17.9574 16.0935 17.902 16.0322 17.8629 15.9608C17.8238 15.8894 17.802 15.8099 17.7991 15.7286C17.786 15.3826 17.9069 15.0269 18.181 14.756L18.8698 14.0673C19.0493 13.8878 19.3333 13.865 19.5422 14.0119C19.7813 14.179 20.0052 14.3669 20.2113 14.5732ZM24.8107 9.97151C22.875 8.03619 19.7283 8.03619 17.7925 9.97151L15.599 12.1647C15.5957 12.1679 15.5892 12.1745 15.5859 12.1777C13.673 14.1 13.6469 17.2298 15.599 19.1815C15.8052 19.3878 16.0291 19.5757 16.2682 19.7428C16.4771 19.8897 16.7611 19.8669 16.9406 19.6874L17.6294 18.9987C17.9035 18.7246 18.0243 18.3721 18.0112 18.0261C18.0083 17.9448 17.9865 17.8653 17.9474 17.7939C17.9083 17.7225 17.853 17.6612 17.786 17.6149C17.6913 17.5497 17.5706 17.455 17.4498 17.3342C16.5325 16.4171 16.5293 14.9322 17.4498 14.0119L19.6434 11.8188C20.5639 10.8984 22.0687 10.9017 22.9827 11.8351C23.8902 12.7587 23.8608 14.2468 22.9435 15.1639L22.5159 15.5914C22.3724 15.7351 22.3266 15.9439 22.392 16.1333C22.5845 16.6946 22.6857 17.2755 22.7085 17.8532C22.7249 18.3068 23.2798 18.5189 23.5997 18.1991L24.8107 16.9883C26.7464 15.0529 26.7464 11.9069 24.8107 9.97151Z" fill="#05A6C6"/>
<mask id="mask1_161_1918" style="mask-type:luminance" maskUnits="userSpaceOnUse" x="9" y="8" width="18" height="18">
<path d="M20.2113 14.5732C22.1602 16.5249 22.134 19.6547 20.2244 21.577C20.2212 21.5802 20.2179 21.5868 20.2113 21.59L18.0178 23.7832C16.0821 25.7185 12.9354 25.7185 10.9996 23.7832C9.06393 21.8478 9.06393 18.7018 10.9996 16.7664L12.2107 15.5556C12.5306 15.2358 13.0855 15.4479 13.1019 15.9015C13.1214 16.4792 13.2258 17.0601 13.4184 17.6214C13.4838 17.8108 13.438 18.0229 13.2944 18.1633L12.8668 18.5908C11.9528 19.5045 11.9234 20.996 12.8276 21.9196C13.7417 22.853 15.2464 22.8563 16.167 21.9359L18.3606 19.7428C19.2811 18.8225 19.2778 17.3342 18.3606 16.4205C18.2398 16.2997 18.119 16.205 18.0243 16.1398C17.9574 16.0935 17.902 16.0322 17.8629 15.9608C17.8238 15.8894 17.802 15.8099 17.7991 15.7286C17.786 15.3826 17.9069 15.0269 18.181 14.756L18.8698 14.0673C19.0493 13.8878 19.3333 13.865 19.5422 14.0119C19.7813 14.179 20.0052 14.3669 20.2113 14.5732ZM24.8107 9.97151C22.875 8.03619 19.7283 8.03619 17.7925 9.97151L15.599 12.1647C15.5957 12.1679 15.5892 12.1745 15.5859 12.1777C13.673 14.1 13.6469 17.2298 15.599 19.1815C15.8052 19.3878 16.0291 19.5757 16.2682 19.7428C16.4771 19.8897 16.7611 19.8669 16.9406 19.6874L17.6294 18.9987C17.9035 18.7246 18.0243 18.3721 18.0112 18.0261C18.0083 17.9448 17.9865 17.8653 17.9474 17.7939C17.9083 17.7225 17.853 17.6612 17.786 17.6149C17.6913 17.5497 17.5706 17.455 17.4498 17.3342C16.5325 16.4171 16.5293 14.9322 17.4498 14.0119L19.6434 11.8188C20.5639 10.8984 22.0687 10.9017 22.9827 11.8351C23.8902 12.7587 23.8608 14.2468 22.9435 15.1639L22.5159 15.5914C22.3724 15.7351 22.3266 15.9439 22.392 16.1333C22.5845 16.6946 22.6857 17.2755 22.7085 17.8532C22.7249 18.3068 23.2798 18.5189 23.5997 18.1991L24.8107 16.9883C26.7464 15.0529 26.7464 11.9069 24.8107 9.97151Z" fill="white"/>
</mask>
<g mask="url(#mask1_161_1918)">
<path d="M20.2115 21.59L20.1285 21.4238L20.1016 21.4373L20.0802 21.4586L20.2115 21.59ZM13.2946 18.1632L13.1648 18.0303L13.1633 18.0318L13.2946 18.1632ZM18.1811 14.7559L18.3117 14.888L18.3124 14.8872L18.1811 14.7559ZM20.0801 14.7044C21.956 16.583 21.931 19.5956 20.0928 21.446L20.3559 21.7083C22.337 19.714 22.3646 16.4666 20.343 14.4419L20.0801 14.7044ZM20.0928 21.446C20.0872 21.4517 20.0834 21.4562 20.0808 21.4593C20.0781 21.4625 20.076 21.4652 20.0752 21.4663C20.0722 21.4701 20.0747 21.4667 20.0767 21.4645C20.0816 21.4586 20.0986 21.4388 20.1285 21.4238L20.2946 21.7561C20.331 21.7378 20.3529 21.7132 20.3619 21.7023C20.3658 21.6976 20.3703 21.6918 20.3691 21.6934C20.369 21.6935 20.3687 21.6939 20.3683 21.6944C20.3678 21.6951 20.367 21.696 20.366 21.6971C20.3643 21.6994 20.3607 21.7033 20.3559 21.7083L20.0928 21.446ZM20.0802 21.4586L17.8867 23.6517L18.1493 23.9144L20.3429 21.7213L20.0802 21.4586ZM17.8867 23.6517C16.0235 25.5146 12.9943 25.5146 11.1311 23.6517L10.8685 23.9144C12.8767 25.9223 16.141 25.9223 18.1493 23.9144L17.8867 23.6517ZM11.1311 23.6517C9.26795 21.789 9.26795 18.7605 11.1311 16.8976L10.8685 16.635C8.86025 18.6428 8.86025 21.9066 10.8685 23.9144L11.1311 23.6517ZM11.1311 16.8976L12.3422 15.6868L12.0796 15.4242L10.8685 16.635L11.1311 16.8976ZM12.3422 15.6868C12.5502 15.4789 12.9061 15.6206 12.9164 15.9081L13.2876 15.8952C13.2653 15.2754 12.5113 14.9924 12.0796 15.4242L12.3422 15.6868ZM12.9164 15.9081C12.9365 16.5039 13.0443 17.1026 13.243 17.6816L13.5943 17.5611C13.4078 17.0175 13.3066 16.4548 13.2876 15.8952L12.9164 15.9081ZM13.243 17.6816C13.2859 17.8061 13.2548 17.9424 13.1648 18.0303L13.4243 18.296C13.6217 18.1032 13.6819 17.8152 13.5943 17.5611L13.243 17.6816ZM13.1633 18.0318L12.7357 18.4593L12.9983 18.722L13.4259 18.2945L13.1633 18.0318ZM12.7357 18.4593C11.7519 19.443 11.7175 21.0509 12.6951 22.0495L12.9605 21.7896C12.1297 20.941 12.1541 19.566 12.9983 18.722L12.7357 18.4593ZM12.6951 22.0495C13.6817 23.057 15.3052 23.0603 16.2984 22.0673L16.0358 21.8046C15.188 22.6522 13.8019 22.6489 12.9605 21.7896L12.6951 22.0495ZM16.2984 22.0673L18.492 19.8741L18.2294 19.6114L16.0358 21.8046L16.2984 22.0673ZM18.492 19.8741C19.4852 18.8812 19.4819 17.2752 18.4918 16.2888L18.2294 16.5517C19.0739 17.393 19.0773 18.7636 18.2294 19.6114L18.492 19.8741ZM18.4918 16.2888C18.3618 16.159 18.2324 16.0574 18.1299 15.9867L17.919 16.2925C18.0058 16.3524 18.1177 16.4401 18.2294 16.5517L18.4918 16.2888ZM18.1299 15.9867C18.0867 15.9569 18.0512 15.9176 18.026 15.8716L17.7002 16.05C17.7532 16.1467 17.8282 16.2299 17.919 16.2925L18.1299 15.9867ZM18.026 15.8716C18.0008 15.8255 17.9867 15.7743 17.9848 15.7219L17.6137 15.7351C17.6176 15.8453 17.6472 15.9532 17.7002 16.05L18.026 15.8716ZM17.9848 15.7219C17.9736 15.4239 18.0774 15.1195 18.3117 14.888L18.0507 14.6238C17.7365 14.9341 17.5988 15.3413 17.6137 15.7351L17.9848 15.7219ZM18.3124 14.8872L19.0013 14.1987L18.7387 13.936L18.0498 14.6246L18.3124 14.8872ZM19.0013 14.1987C19.116 14.084 19.2993 14.0679 19.4356 14.1637L19.6492 13.8599C19.3677 13.6619 18.9831 13.6916 18.7387 13.936L19.0013 14.1987ZM19.4356 14.1637C19.6658 14.3247 19.8816 14.5056 20.0801 14.7044L20.343 14.4419C20.1291 14.2279 19.8972 14.0333 19.6492 13.8599L19.4356 14.1637ZM24.9422 9.84012C22.934 7.83226 19.6697 7.83226 17.6614 9.84012L17.924 10.1028C19.7872 8.23995 22.8164 8.23995 24.6796 10.1028L24.9422 9.84012ZM17.6614 9.84012L15.4678 12.0333L15.7305 12.296L17.924 10.1028L17.6614 9.84012ZM15.4678 12.0333C15.4662 12.0348 15.4638 12.0374 15.4613 12.0398C15.4589 12.0423 15.4564 12.0447 15.4548 12.0463L15.7174 12.309C15.7191 12.3074 15.7215 12.3049 15.7239 12.3025C15.7264 12.3001 15.7288 12.2975 15.7305 12.296L15.4678 12.0333ZM15.4548 12.0463C13.4704 14.0405 13.4427 17.2881 15.4678 19.3127L15.7305 19.0501C13.8515 17.1714 13.8761 14.1593 15.7174 12.309L15.4548 12.0463ZM15.4678 19.3127C15.6817 19.5267 15.9139 19.7215 16.1619 19.8949L16.3751 19.5908C16.1449 19.4299 15.929 19.2488 15.7305 19.0501L15.4678 19.3127ZM16.1619 19.8949C16.4434 20.0929 16.8276 20.0629 17.072 19.8186L16.8094 19.5559C16.6947 19.6706 16.5114 19.6866 16.3751 19.5908L16.1619 19.8949ZM17.072 19.8186L17.7609 19.1299L17.4983 18.8673L16.8094 19.5559L17.072 19.8186ZM17.7609 19.1299C18.0737 18.8171 18.2119 18.4136 18.197 18.0191L17.8259 18.0326C17.8371 18.33 17.7337 18.6318 17.4983 18.8673L17.7609 19.1299ZM18.197 18.0191C18.1931 17.9088 18.1635 17.8013 18.1105 17.7045L17.7847 17.8829C17.8099 17.929 17.824 17.9802 17.8259 18.0326L18.197 18.0191ZM18.1105 17.7045C18.0575 17.6078 17.9825 17.5247 17.8917 17.462L17.6807 17.7677C17.7239 17.7975 17.7595 17.837 17.7847 17.8829L18.1105 17.7045ZM17.8917 17.462C17.8049 17.4021 17.693 17.3144 17.5813 17.2028L17.3187 17.4655C17.4486 17.5953 17.5782 17.697 17.6807 17.7677L17.8917 17.462ZM17.5813 17.2028C16.7364 16.3581 16.7335 14.9907 17.5813 14.1431L17.3187 13.8804C16.3254 14.8736 16.3291 16.4761 17.3187 17.4655L17.5813 17.2028ZM17.5813 14.1431L19.7749 11.95L19.5123 11.6873L17.3187 13.8804L17.5813 14.1431ZM19.7749 11.95C20.6227 11.1024 22.0088 11.1056 22.8502 11.9649L23.1156 11.705C22.1291 10.6975 20.5055 10.6942 19.5123 11.6873L19.7749 11.95ZM22.8502 11.9649C23.6838 12.8134 23.66 14.1851 22.8124 15.0325L23.075 15.2952C24.062 14.3085 24.0968 12.7037 23.1156 11.705L22.8502 11.9649ZM22.8124 15.0325L22.3848 15.4601L22.6474 15.7228L23.075 15.2952L22.8124 15.0325ZM22.3848 15.4601C22.1901 15.6548 22.1285 15.9385 22.2165 16.1937L22.5677 16.0729C22.5252 15.9496 22.5549 15.8152 22.6474 15.7228L22.3848 15.4601ZM22.2165 16.1937C22.4028 16.7368 22.501 17.2994 22.5231 17.8605L22.8943 17.8464C22.8708 17.252 22.7666 16.6525 22.5677 16.0729L22.2165 16.1937ZM22.5231 17.8605C22.5454 18.4802 23.2994 18.7621 23.7312 18.3303L23.4685 18.0677C23.2605 18.2756 22.9046 18.1339 22.8943 17.8464L22.5231 17.8605ZM23.7312 18.3303L24.9422 17.1195L24.6796 16.8569L23.4685 18.0677L23.7312 18.3303ZM24.9422 17.1195C26.9505 15.1117 26.9505 11.8479 24.9422 9.84012L24.6796 10.1028C26.5427 11.9656 26.5427 14.9941 24.6796 16.8569L24.9422 17.1195Z" fill="#CFF4FC"/>
</g>
</g>
</g>
<defs>
<clipPath id="clip0_161_1918">
<rect width="34.3579" height="33.4293" fill="white" transform="translate(0.262695 0.163208)"/>
</clipPath>
</defs>
</svg>
