<svg width="35" height="36" viewBox="0 0 35 36" fill="none" xmlns="http://www.w3.org/2000/svg">
<g clip-path="url(#clip0_161_1871)">
<path d="M26.9753 0.693665H8.47814C4.09998 0.693665 0.550781 4.24286 0.550781 8.62103V27.1182C0.550781 31.4964 4.09998 35.0456 8.47814 35.0456H26.9753C31.3535 35.0456 34.9027 31.4964 34.9027 27.1182V8.62103C34.9027 4.24286 31.3535 0.693665 26.9753 0.693665Z" fill="#E9E3FF"/>
<path d="M17.727 21.8333C17.0445 21.8333 16.3621 21.6095 15.7798 21.1558L7.15723 14.4509V23.8151C7.15723 24.9092 8.04451 25.797 9.13907 25.797H26.315C27.4095 25.797 28.2969 24.9096 28.2969 23.8151V14.4509L19.6758 21.1603C19.0937 21.6104 18.4083 21.8333 17.727 21.8333ZM7.82981 13.299L16.5912 20.1157C17.2597 20.6359 18.1961 20.6359 18.8645 20.1157L27.6259 13.299C28.012 12.9687 28.2969 12.4608 28.2969 11.9241C28.2969 10.8295 27.4091 9.94226 26.315 9.94226H9.13907C8.04451 9.94226 7.15723 10.8295 7.15723 11.9241C7.15723 12.4608 7.40537 12.9687 7.82981 13.299Z" fill="#6F4CFC"/>
</g>
<defs>
<clipPath id="clip0_161_1871">
<rect width="34.3519" height="34.3519" fill="white" transform="translate(0.550781 0.693665)"/>
</clipPath>
</defs>
</svg>
