<svg width="36" height="36" viewBox="0 0 36 36" fill="none" xmlns="http://www.w3.org/2000/svg">
<g clip-path="url(#clip0_161_1902)">
<path d="M27.2709 0.847412H8.77054C4.39162 0.847412 0.841797 4.39723 0.841797 8.77616V27.2766C0.841797 31.6555 4.39162 35.2053 8.77054 35.2053H27.2709C31.6499 35.2053 35.1997 31.6555 35.1997 27.2766V8.77616C35.1997 4.39723 31.6499 0.847412 27.2709 0.847412Z" fill="#BFFFDD"/>
<path d="M25.6175 11.8072C26.0599 12.3235 26.0599 13.1578 25.6175 13.674L16.5554 24.2468C16.113 24.7631 15.398 24.7631 14.9556 24.2468L10.4235 18.9605C9.98121 18.4442 9.98121 17.6099 10.4235 17.0936C10.866 16.5773 11.5831 16.5773 12.0256 17.0936L15.7236 21.4426L24.0174 11.8072C24.4599 11.2902 25.1749 11.2902 25.6175 11.8072Z" fill="#05C95F" stroke="#05C95F" stroke-width="1.07368"/>
</g>
<defs>
<clipPath id="clip0_161_1902">
<rect width="34.3579" height="34.3579" fill="white" transform="translate(0.841797 0.847412)"/>
</clipPath>
</defs>
</svg>
