<svg width="36" height="35" viewBox="0 0 36 35" fill="none" xmlns="http://www.w3.org/2000/svg">
<g clip-path="url(#clip0_161_1886)">
<path d="M27.3308 0.278503H8.83361C4.45545 0.278503 0.90625 3.8277 0.90625 8.20586V26.703C0.90625 31.0812 4.45545 34.6304 8.83361 34.6304H27.3308C31.7089 34.6304 35.2581 31.0812 35.2581 26.703V8.20586C35.2581 3.8277 31.7089 0.278503 27.3308 0.278503Z" fill="#FFE5B3"/>
<path d="M20.7251 6.88464V12.1696H26.01L20.7251 6.88464ZM19.4039 12.1696V6.88464H12.1371C11.0426 6.88464 10.1553 7.77193 10.1553 8.86648V26.0424C10.1553 27.1365 11.0426 28.0243 12.1371 28.0243H24.0282C25.1227 28.0243 26.01 27.1369 26.01 26.0424V13.4908H20.7622C19.9943 13.4908 19.4039 12.9004 19.4039 12.1696ZM21.3857 24.0606H14.7796C14.4162 24.0606 14.119 23.7633 14.119 23.4C14.119 23.0366 14.4162 22.7394 14.7796 22.7394H21.3857C21.7505 22.7394 22.0463 23.0351 22.0463 23.4C22.0463 23.7633 21.749 24.0606 21.3857 24.0606ZM21.3857 21.4181H14.7796C14.4162 21.4181 14.119 21.1209 14.119 20.7575C14.119 20.3942 14.4162 20.0969 14.7796 20.0969H21.3857C21.7505 20.0969 22.0463 20.3926 22.0463 20.7575C22.0463 21.1209 21.749 21.4181 21.3857 21.4181ZM22.0463 18.1151C22.0463 18.4784 21.749 18.7757 21.3857 18.7757H14.7796C14.4162 18.7757 14.119 18.4784 14.119 18.1151C14.119 17.7517 14.4162 17.4545 14.7796 17.4545H21.3857C21.749 17.4545 22.0463 17.7517 22.0463 18.1151Z" fill="#E39806"/>
</g>
<defs>
<clipPath id="clip0_161_1886">
<rect width="34.3519" height="34.3519" fill="white" transform="translate(0.90625 0.278503)"/>
</clipPath>
</defs>
</svg>
