<svg height="512" viewBox="0 0 64 64" width="512" xmlns="http://www.w3.org/2000/svg"><g id="_91_email_mail_menu_list_reorder" data-name="91 email, mail, menu, list, reorder"><path d="m58 13h-13a1 1 0 0 0 -.35.07 13 13 0 0 0 -25.3 0 1 1 0 0 0 -.35-.07h-13a3 3 0 0 0 -3 3v42a3 3 0 0 0 3 3h52a3 3 0 0 0 3-3v-42a3 3 0 0 0 -3-3zm-27-3h8a1 1 0 0 1 0 2h-8a1 1 0 0 1 0-2zm0 5h8a1 1 0 0 1 0 2h-8a1 1 0 0 1 0-2zm0 5h8a1 1 0 0 1 0 2h-8a1 1 0 0 1 0-2zm-5-11a2 2 0 1 1 -2 2 2 2 0 0 1 2-2zm0 5a2 2 0 1 1 -2 2 2 2 0 0 1 2-2zm0 5a2 2 0 1 1 -2 2 2 2 0 0 1 2-2zm33-1.51-27 19.28-27-19.28v-1.49a1 1 0 0 1 1-1h13.05c0 .33-.05.67-.05 1a13 13 0 0 0 26 0c0-.34 0-.68 0-1h13a1 1 0 0 1 1 1z"/></g></svg>