<svg width="22" height="18" viewBox="0 0 22 18" fill="none" xmlns="http://www.w3.org/2000/svg">
<path d="M22 6.6V13.2C22 14.367 21.5364 15.4861 20.7113 16.3113C19.8861 17.1364 18.767 17.6 17.6 17.6H4.4C3.23305 17.6 2.11389 17.1364 1.28873 16.3113C0.46357 15.4861 0 14.367 0 13.2V6.6H22ZM5.511 11H5.5C5.35555 11.0007 5.21265 11.0299 5.07947 11.0858C4.94629 11.1418 4.82543 11.2234 4.72379 11.3261C4.51854 11.5334 4.40404 11.8138 4.4055 12.1055C4.40622 12.25 4.43539 12.3929 4.49134 12.526C4.54729 12.6592 4.62892 12.7801 4.73157 12.8817C4.83423 12.9833 4.95589 13.0638 5.08963 13.1184C5.22336 13.173 5.36655 13.2007 5.511 13.2C5.80274 13.2 6.08253 13.0841 6.28882 12.8778C6.49511 12.6715 6.611 12.3917 6.611 12.1C6.611 11.8083 6.49511 11.5285 6.28882 11.3222C6.08253 11.1159 5.80274 11 5.511 11ZM12.1 11H9.9C9.60826 11 9.32847 11.1159 9.12218 11.3222C8.91589 11.5285 8.8 11.8083 8.8 12.1C8.8 12.3917 8.91589 12.6715 9.12218 12.8778C9.32847 13.0841 9.60826 13.2 9.9 13.2H12.1C12.3917 13.2 12.6715 13.0841 12.8778 12.8778C13.0841 12.6715 13.2 12.3917 13.2 12.1C13.2 11.8083 13.0841 11.5285 12.8778 11.3222C12.6715 11.1159 12.3917 11 12.1 11ZM17.6 0C18.767 0 19.8861 0.46357 20.7113 1.28873C21.5364 2.11389 22 3.23305 22 4.4H0C0 3.23305 0.46357 2.11389 1.28873 1.28873C2.11389 0.46357 3.23305 0 4.4 0H17.6Z" fill="white"/>
</svg>
