<svg width="22" height="18" viewBox="0 0 22 18" fill="none" xmlns="http://www.w3.org/2000/svg">
<path d="M10.7083 5.21948L3.66696 11.0189V17.2781C3.66696 17.4401 3.73134 17.5956 3.84593 17.7102C3.96053 17.8248 4.11596 17.8891 4.27802 17.8891L8.55776 17.8781C8.71929 17.8773 8.87394 17.8125 8.98787 17.698C9.10181 17.5835 9.16577 17.4285 9.16577 17.267V13.6117C9.16577 13.4496 9.23015 13.2942 9.34474 13.1796C9.45934 13.065 9.61477 13.0006 9.77683 13.0006H12.2211C12.3832 13.0006 12.5386 13.065 12.6532 13.1796C12.7678 13.2942 12.8322 13.4496 12.8322 13.6117V17.2643C12.8319 17.3447 12.8475 17.4244 12.8781 17.4988C12.9087 17.5731 12.9537 17.6407 13.0105 17.6976C13.0672 17.7546 13.1347 17.7998 13.2089 17.8306C13.2832 17.8614 13.3628 17.8773 13.4432 17.8773L17.7214 17.8891C17.8835 17.8891 18.0389 17.8248 18.1535 17.7102C18.2681 17.5956 18.3325 17.4401 18.3325 17.2781V11.0147L11.2927 5.21948C11.2099 5.15277 11.1068 5.11639 11.0005 5.11639C10.8942 5.11639 10.7911 5.15277 10.7083 5.21948ZM21.8308 9.16123L18.638 6.52945V1.23955C18.638 1.118 18.5897 1.00143 18.5038 0.915482C18.4178 0.829535 18.3013 0.78125 18.1797 0.78125H16.041C15.9195 0.78125 15.8029 0.829535 15.7169 0.915482C15.631 1.00143 15.5827 1.118 15.5827 1.23955V4.01263L12.1634 1.19945C11.8353 0.929425 11.4235 0.78179 10.9986 0.78179C10.5736 0.78179 10.1619 0.929425 9.83374 1.19945L0.166323 9.16123C0.119916 9.19959 0.0815212 9.24671 0.0533329 9.29991C0.0251445 9.35311 0.00771497 9.41135 0.00204025 9.47129C-0.00363448 9.53123 0.00255679 9.5917 0.0202603 9.64924C0.0379638 9.70679 0.0668326 9.76028 0.105217 9.80667L1.0791 10.9906C1.11738 11.0371 1.16446 11.0757 1.21766 11.104C1.27085 11.1323 1.32911 11.1499 1.3891 11.1557C1.44909 11.1615 1.50962 11.1554 1.56725 11.1377C1.62487 11.1201 1.67845 11.0912 1.72492 11.0529L10.7083 3.65363C10.7911 3.58692 10.8942 3.55054 11.0005 3.55054C11.1068 3.55054 11.2099 3.58692 11.2927 3.65363L20.2764 11.0529C20.3228 11.0912 20.3763 11.1201 20.4339 11.1378C20.4914 11.1555 20.5519 11.1617 20.6118 11.156C20.6718 11.1504 20.73 11.1329 20.7832 11.1047C20.8364 11.0766 20.8835 11.0382 20.9219 10.9917L21.8958 9.80781C21.9341 9.76116 21.9629 9.70739 21.9803 9.64959C21.9978 9.59179 22.0037 9.53111 21.9977 9.47102C21.9917 9.41094 21.9738 9.35264 21.9452 9.29947C21.9165 9.24631 21.8777 9.19933 21.8308 9.16123Z" fill="white"/>
</svg>
