<svg width="24" height="25" viewBox="0 0 24 25" fill="none" xmlns="http://www.w3.org/2000/svg">
<path d="M12 24.8879C15.1826 24.8879 18.2348 23.6237 20.4853 21.3732C22.7357 19.1228 24 16.0705 24 12.8879C24 9.70534 22.7357 6.65309 20.4853 4.40266C18.2348 2.15222 15.1826 0.887939 12 0.887939C8.8174 0.887939 5.76516 2.15222 3.51472 4.40266C1.26428 6.65309 0 9.70534 0 12.8879C0 16.0705 1.26428 19.1228 3.51472 21.3732C5.76516 23.6237 8.8174 24.8879 12 24.8879ZM7.95938 8.63638C8.32969 7.59106 9.32344 6.88794 10.4344 6.88794H13.1672C14.8031 6.88794 16.125 8.2145 16.125 9.84575C16.125 10.9051 15.5578 11.8848 14.6391 12.4145L13.125 13.2817C13.1156 13.8911 12.6141 14.3879 12 14.3879C11.3766 14.3879 10.875 13.8864 10.875 13.2629V12.6301C10.875 12.227 11.0906 11.8567 11.4422 11.6551L13.5187 10.4645C13.7391 10.3379 13.875 10.1036 13.875 9.85044C13.875 9.45669 13.5562 9.14263 13.1672 9.14263H10.4344C10.275 9.14263 10.1344 9.24106 10.0828 9.39106L10.0641 9.44732C9.85781 10.0333 9.21094 10.3379 8.62969 10.1317C8.04844 9.92544 7.73906 9.27856 7.94531 8.69731L7.96406 8.64106L7.95938 8.63638ZM10.5 17.3879C10.5 16.9901 10.658 16.6086 10.9393 16.3273C11.2206 16.046 11.6022 15.8879 12 15.8879C12.3978 15.8879 12.7794 16.046 13.0607 16.3273C13.342 16.6086 13.5 16.9901 13.5 17.3879C13.5 17.7858 13.342 18.1673 13.0607 18.4486C12.7794 18.7299 12.3978 18.8879 12 18.8879C11.6022 18.8879 11.2206 18.7299 10.9393 18.4486C10.658 18.1673 10.5 17.7858 10.5 17.3879Z" fill="white"/>
</svg>
