<svg width="22" height="24" viewBox="0 0 22 24" fill="none" xmlns="http://www.w3.org/2000/svg">
<path d="M22 2.99814V20.9971C22.004 21.7881 21.6899 22.5483 21.1267 23.1105C20.5635 23.6727 19.7974 23.9909 18.9967 23.9951C18.8723 23.996 18.7479 23.9893 18.6242 23.9751C17.877 23.8656 17.196 23.49 16.7094 22.9191C16.2229 22.3482 15.9643 21.6213 15.9824 20.8751V3.12014C15.9645 2.37327 16.2237 1.64574 16.7113 1.07471C17.1989 0.503667 17.8811 0.128573 18.6293 0.0201391C19.0538 -0.028839 19.4839 0.0117642 19.8914 0.139264C20.2988 0.266763 20.6742 0.478255 20.9927 0.759753C21.3112 1.04125 21.5656 1.38634 21.7391 1.77221C21.9125 2.15808 22.0021 2.57593 22 2.99814ZM3.0645 18.0551C2.66473 18.0479 2.26751 18.1194 1.89605 18.2656C1.52458 18.4117 1.18631 18.6295 0.901008 18.9062C0.615704 19.183 0.389081 19.5131 0.234379 19.8773C0.079678 20.2416 0 20.6326 0 21.0276C0 21.4226 0.079678 21.8137 0.234379 22.1779C0.389081 22.5422 0.615704 22.8723 0.901008 23.1491C1.18631 23.4258 1.52458 23.6436 1.89605 23.7897C2.26751 23.9359 2.66473 24.0074 3.0645 24.0001C3.85292 23.9859 4.60418 23.6664 5.15663 23.1105C5.70909 22.5546 6.01862 21.8067 6.01862 21.0276C6.01862 20.2486 5.70909 19.5007 5.15663 18.9448C4.60418 18.3889 3.85292 18.0694 3.0645 18.0551ZM11.0326 9.04514H10.982C10.1787 9.08856 9.42399 9.43909 8.87764 10.0225C8.33128 10.606 8.03615 11.3765 8.05471 12.1711V20.1561C8.05471 22.3231 9.02036 23.6381 10.4334 23.9191C10.8719 24.007 11.3246 23.9973 11.7589 23.8909C12.1931 23.7844 12.5979 23.5837 12.9438 23.3035C13.2898 23.0233 13.5683 22.6704 13.7591 22.2707C13.9499 21.8709 14.0483 21.4341 14.047 20.9921V12.0331C14.0477 11.6414 13.9702 11.2534 13.8191 10.8912C13.668 10.529 13.4461 10.1998 13.1662 9.92237C12.8863 9.64491 12.5538 9.42463 12.1877 9.27412C11.8217 9.1236 11.4292 9.0458 11.0326 9.04514Z" fill="#078DEE"/>
</svg>
