<svg width="22" height="23" viewBox="0 0 22 23" fill="none" xmlns="http://www.w3.org/2000/svg">
<path d="M11.003 14.9105C9.98196 14.9105 9.0027 14.5049 8.28068 13.7829C7.55867 13.0609 7.15304 12.0816 7.15304 11.0605C7.15304 10.0395 7.55867 9.0602 8.28068 8.33819C9.0027 7.61617 9.98196 7.21055 11.003 7.21055C12.0241 7.21055 13.0034 7.61617 13.7254 8.33819C14.4474 9.0602 14.853 10.0395 14.853 11.0605C14.853 12.0816 14.4474 13.0609 13.7254 13.7829C13.0034 14.5049 12.0241 14.9105 11.003 14.9105ZM19.176 12.1275C19.22 11.7755 19.253 11.4235 19.253 11.0605C19.253 10.6975 19.22 10.3345 19.176 9.96055L21.497 8.16755C21.706 8.00255 21.761 7.70555 21.629 7.46355L19.429 3.65755C19.297 3.41555 19 3.31655 18.758 3.41555L16.019 4.51555C15.447 4.08655 14.853 3.71255 14.16 3.43755L13.753 0.522549C13.7307 0.392988 13.6632 0.275519 13.5625 0.190956C13.4619 0.106392 13.3345 0.0601951 13.203 0.0605489H8.80304C8.52804 0.0605489 8.29704 0.258549 8.25304 0.522549L7.84604 3.43755C7.15304 3.71255 6.55904 4.08655 5.98704 4.51555L3.24804 3.41555C3.00605 3.31655 2.70905 3.41555 2.57705 3.65755L0.377046 7.46355C0.234046 7.70555 0.300046 8.00255 0.509046 8.16755L2.83005 9.96055C2.78605 10.3345 2.75305 10.6975 2.75305 11.0605C2.75305 11.4235 2.78605 11.7755 2.83005 12.1275L0.509046 13.9535C0.300046 14.1185 0.234046 14.4155 0.377046 14.6575L2.57705 18.4635C2.70905 18.7055 3.00605 18.7935 3.24804 18.7055L5.98704 17.5945C6.55904 18.0345 7.15304 18.4085 7.84604 18.6835L8.25304 21.5985C8.29704 21.8625 8.52804 22.0605 8.80304 22.0605H13.203C13.478 22.0605 13.709 21.8625 13.753 21.5985L14.16 18.6835C14.853 18.3975 15.447 18.0345 16.019 17.5945L18.758 18.7055C19 18.7935 19.297 18.7055 19.429 18.4635L21.629 14.6575C21.761 14.4155 21.706 14.1185 21.497 13.9535L19.176 12.1275Z" fill="white"/>
</svg>
