<svg width="1428" height="497" viewBox="0 0 1428 497" fill="none" xmlns="http://www.w3.org/2000/svg">
<g clip-path="url(#clip0_17_245)">
<path d="M374.284 186.528C374.284 289.469 290.597 372.915 187.368 372.915C155.001 372.915 124.556 364.715 98.0108 350.278C39.8876 318.671 0.452026 257.194 0.452026 186.528C0.452026 83.5903 84.137 0.141052 187.366 0.141052C290.597 0.141052 374.284 83.5903 374.284 186.528Z" fill="#20B276"/>
<path d="M261.97 239.541C242.191 259.866 218.188 270.036 189.967 270.036C172.743 270.036 156.739 267.129 141.737 258.683L141.557 366.912L140.135 366.529L139.255 366.304L138.216 365.741L137.727 364.858L137.276 363.859L137.776 363.234L88.2834 304.389L88.2979 165.285C88.2979 136.3 98.1857 111.683 117.966 91.4304C137.741 71.176 161.743 61.051 189.967 61.051C218.188 61.051 242.19 71.2121 261.97 91.5413C281.745 111.868 291.636 136.536 291.636 165.543C291.636 194.552 281.745 219.216 261.97 239.541ZM224.217 130.311C214.827 120.651 203.41 115.824 189.967 115.824C176.521 115.824 165.104 120.651 155.717 130.311C146.326 139.971 141.63 151.712 141.63 165.546C141.63 179.375 146.324 191.116 155.717 200.776C165.104 210.437 176.521 215.267 189.967 215.267C203.41 215.267 214.827 210.437 224.217 200.776C233.607 191.116 238.302 179.375 238.302 165.546C238.302 151.712 233.607 139.969 224.217 130.311Z" fill="#147F52"/>
<path d="M258.079 235.699C238.301 256.027 214.301 266.194 186.078 266.194C168.853 266.194 152.743 261.971 137.743 253.526L137.727 366.274C137.727 366.274 134.076 365.271 129.324 363.741C128.152 363.364 126.969 362.959 125.73 362.522C125.14 362.314 124.853 362.191 124.246 362.017C122.691 361.57 120.721 360.709 119.202 360.119C114.099 358.138 109.965 356.25 109.865 356.204C109.765 356.156 95.1589 349.208 93.5119 348.182C92.0368 347.263 90.7235 346.543 89.5981 345.737C89.2383 345.481 88.9667 345.298 88.6258 345.064C85.9501 343.23 84.4548 342.177 84.4548 342.177L84.41 161.445C84.41 132.459 94.2978 107.843 114.078 87.591C133.855 67.3352 157.855 57.2117 186.079 57.2117C214.302 57.2117 238.302 67.3727 258.08 87.702C277.857 108.028 287.75 132.697 287.75 161.702C287.747 190.708 277.856 215.373 258.079 235.699ZM220.328 126.469C210.936 116.809 199.521 111.982 186.076 111.982C172.63 111.982 161.214 116.809 151.826 126.469C142.435 136.129 137.741 147.87 137.741 161.702C137.741 175.532 142.435 187.274 151.826 196.932C161.214 206.596 172.63 211.425 186.076 211.425C199.519 211.425 210.936 206.596 220.328 196.932C229.716 187.274 234.413 175.532 234.413 161.702C234.413 147.87 229.716 136.129 220.328 126.469Z" fill="white"/>
<path d="M421.151 311.294V70.6574C421.151 67.0989 422.503 63.9698 425.211 61.2686C427.915 58.5688 431.05 57.2174 434.62 57.2174H501.595C523.857 57.2174 542.832 65.0489 558.515 80.7046C574.198 96.3604 582.04 115.302 582.04 137.527C582.04 159.632 574.186 178.542 558.483 194.261C542.778 209.98 523.779 217.836 501.486 217.836H461.206C452.338 217.836 447.905 213.361 447.905 204.406V311.301C447.905 320.258 443.445 324.732 434.528 324.732C425.608 324.734 421.151 320.255 421.151 311.294ZM447.905 204.408C447.905 195.576 452.338 191.161 461.212 191.161H501.504C516.287 191.161 528.95 185.931 539.484 175.47C550.019 165.008 555.288 152.391 555.288 137.621C555.288 122.854 550.019 110.208 539.484 99.6825C528.949 89.1613 516.287 83.8971 501.504 83.8971H447.905V204.408Z" fill="#3B3938"/>
<path d="M734.251 311.288C734.251 320.252 729.761 324.734 720.784 324.734C711.803 324.734 707.375 320.259 707.499 311.302C695.567 320.259 682.158 324.734 667.276 324.734C648.826 324.734 633.019 318.203 619.859 305.139C606.696 292.077 600.116 276.344 600.116 257.946C600.116 239.547 606.696 223.787 619.859 210.661C633.019 197.538 648.826 190.975 667.276 190.975C682.158 190.975 695.567 195.454 707.499 204.406C707.499 193.319 703.561 183.832 695.691 175.943C687.818 168.057 678.347 164.113 667.278 164.113C659.528 164.113 651.747 166.813 643.938 172.209C636.125 177.608 631.299 180.305 629.455 180.305C625.765 180.305 622.536 178.919 619.768 176.147C616.999 173.377 615.615 170.143 615.615 166.446C615.615 163.491 617.028 160.352 619.86 157.023C630.807 143.966 646.614 137.437 667.278 137.437C685.728 137.437 701.504 143.977 714.604 157.051C727.704 170.127 734.254 185.873 734.254 204.291V311.288H734.251ZM707.499 257.855C707.499 246.792 703.552 237.325 695.662 229.456C687.773 221.589 678.278 217.653 667.185 217.653C656.088 217.653 646.595 221.589 638.705 229.456C630.815 237.325 626.871 246.792 626.871 257.855C626.871 268.919 630.815 278.386 638.705 286.255C646.595 294.122 656.09 298.055 667.185 298.055C678.278 298.055 687.773 294.122 695.662 286.255C703.552 278.386 707.499 268.919 707.499 257.855Z" fill="#3B3938"/>
<path d="M957.501 230.994C957.501 256.9 948.337 278.998 930.01 297.295C911.68 315.59 889.54 324.735 863.587 324.735C837.757 324.735 815.677 315.593 797.349 297.303C779.019 279.016 769.858 256.923 769.858 231.023V70.6574C769.858 61.6993 774.347 57.2174 783.328 57.2174C792.184 57.2174 796.611 61.7022 796.611 70.6718V165.586C815.061 146.82 837.387 137.435 863.586 137.435C889.539 137.435 911.678 146.584 930.009 164.877C948.337 183.174 957.501 205.212 957.501 230.994ZM930.747 230.994C930.747 212.693 924.165 196.974 911.005 183.829C897.842 170.686 882.038 164.114 863.587 164.114C845.258 164.114 829.515 170.686 816.354 183.829C803.191 196.974 796.612 212.693 796.612 230.994C796.612 249.417 803.191 265.199 816.354 278.344C829.515 291.487 845.259 298.057 863.587 298.057C882.038 298.057 897.842 291.487 911.005 278.344C924.165 265.199 930.747 249.417 930.747 230.994Z" fill="#3B3938"/>
<path d="M1172.08 230.994C1172.08 256.9 1162.92 278.998 1144.59 297.295C1126.26 315.59 1104.12 324.735 1078.17 324.735C1052.34 324.735 1030.26 315.593 1011.93 297.303C993.599 279.016 984.438 256.923 984.438 231.023V70.6574C984.438 61.6993 988.927 57.2174 997.907 57.2174C1006.76 57.2174 1011.19 61.7022 1011.19 70.6718V165.586C1029.64 146.82 1051.97 137.435 1078.17 137.435C1104.12 137.435 1126.26 146.584 1144.59 164.877C1162.92 183.174 1172.08 205.212 1172.08 230.994ZM1145.33 230.994C1145.33 212.693 1138.74 196.974 1125.58 183.829C1112.42 170.686 1096.62 164.114 1078.17 164.114C1059.84 164.114 1044.09 170.686 1030.93 183.829C1017.77 196.974 1011.19 212.693 1011.19 230.994C1011.19 249.417 1017.77 265.199 1030.93 278.344C1044.09 291.487 1059.84 298.057 1078.17 298.057C1096.62 298.057 1112.42 291.487 1125.58 278.344C1138.75 265.199 1145.33 249.417 1145.33 230.994Z" fill="#3B3938"/>
<path d="M1265.99 311.302C1265.99 320.259 1261.5 324.734 1252.53 324.734C1237.89 324.734 1225.31 319.487 1214.79 308.991C1204.28 298.498 1199.02 285.886 1199.02 271.155V70.6574C1199.02 61.6993 1203.51 57.2174 1212.49 57.2174C1221.34 57.2174 1225.77 61.6993 1225.77 70.6603V271.174C1225.77 278.539 1228.42 284.862 1233.71 290.139C1238.99 295.418 1245.27 298.057 1252.52 298.057C1261.5 298.057 1265.99 302.471 1265.99 311.302Z" fill="#3B3938"/>
<path d="M1427.07 338.119C1427.07 356.408 1420.51 372.119 1407.41 385.255C1394.31 398.382 1378.54 404.953 1360.09 404.953C1348.52 404.953 1337.39 401.945 1326.69 395.937C1315.62 389.801 1307.44 381.77 1302.15 371.835C1300.8 369.135 1300.12 366.744 1300.12 364.66C1300.12 361.1 1301.57 358.006 1304.46 355.369C1307.35 352.73 1310.58 351.413 1314.15 351.413C1317.22 351.413 1322.79 355.89 1330.85 364.845C1338.9 373.797 1348.65 378.275 1360.09 378.275C1371.16 378.275 1380.63 374.347 1388.5 366.5C1396.37 358.648 1400.31 349.205 1400.31 338.166V311.304C1388.38 320.26 1374.97 324.735 1360.09 324.735C1341.64 324.735 1325.86 318.197 1312.76 305.123C1299.66 292.049 1293.11 276.301 1293.11 257.882V150.699C1293.11 141.86 1297.6 137.438 1306.58 137.438C1315.44 137.438 1319.87 141.86 1319.87 150.699V257.902C1319.87 268.957 1323.8 278.412 1331.67 286.271C1339.54 294.131 1349.02 298.058 1360.09 298.058C1371.16 298.058 1380.63 294.131 1388.5 286.271C1396.37 278.412 1400.31 268.955 1400.31 257.902V150.699C1400.31 141.86 1404.8 137.438 1413.78 137.438C1422.64 137.438 1427.06 141.857 1427.06 150.694V338.119H1427.07Z" fill="#3B3938"/>
</g>
<path d="M481.154 489.645C481.154 492.742 479.627 494.291 476.572 494.291H430.305C429.075 494.291 427.993 493.824 427.059 492.891C426.126 491.957 425.659 490.875 425.659 489.645V406.466C425.659 405.236 426.126 404.154 427.059 403.22C427.993 402.287 429.075 401.82 430.305 401.82H476.572C479.627 401.82 481.154 403.369 481.154 406.466C481.154 409.521 479.627 411.048 476.572 411.048H434.951V443.441H467.281C470.378 443.441 471.926 444.969 471.926 448.024C471.926 451.121 470.378 452.669 467.281 452.669H434.951V485.063H476.572C479.627 485.063 481.154 486.59 481.154 489.645Z" fill="#3B3938"/>
<path d="M578.151 489.645C578.151 492.742 576.602 494.291 573.505 494.291C570.45 494.291 568.923 492.742 568.923 489.645V452.669C568.923 448.851 567.565 445.584 564.85 442.869C562.135 440.153 558.868 438.796 555.049 438.796C551.231 438.796 547.964 440.153 545.248 442.869C542.533 445.584 541.175 448.851 541.175 452.669V489.645C541.175 492.742 539.627 494.291 536.53 494.291C533.475 494.291 531.947 492.742 531.947 489.645V452.669C531.947 448.851 530.569 445.584 527.811 442.869C525.095 440.153 521.85 438.796 518.074 438.796C514.255 438.796 510.988 440.153 508.273 442.869C505.558 445.584 504.2 448.851 504.2 452.669V489.645C504.2 492.742 502.651 494.291 499.554 494.291C496.457 494.291 494.908 492.742 494.908 489.645V434.15C494.908 431.095 496.457 429.568 499.554 429.568C502.651 429.568 504.2 431.095 504.2 434.15C508.273 431.095 512.898 429.568 518.074 429.568C525.753 429.568 531.905 432.644 536.53 438.796C541.154 432.644 547.327 429.568 555.049 429.568C561.413 429.568 566.844 431.838 571.341 436.377C575.881 440.875 578.151 446.305 578.151 452.669V489.645Z" fill="#3B3938"/>
<path d="M635.174 489.645C635.174 492.742 633.625 494.291 630.528 494.291C627.431 494.291 625.904 492.742 625.946 489.645C621.83 492.742 617.206 494.291 612.072 494.291C605.708 494.291 600.256 492.042 595.716 487.545C591.177 483.005 588.907 477.553 588.907 471.189C588.907 464.825 591.177 459.373 595.716 454.833C600.256 450.293 605.708 448.024 612.072 448.024C617.206 448.024 621.83 449.572 625.946 452.669C625.946 448.851 624.588 445.584 621.873 442.869C619.158 440.153 615.891 438.796 612.072 438.796C609.399 438.796 606.705 439.729 603.99 441.596C601.317 443.42 599.662 444.332 599.026 444.332C597.753 444.332 596.629 443.866 595.653 442.932C594.719 441.956 594.253 440.832 594.253 439.559C594.253 438.541 594.741 437.459 595.716 436.314C599.492 431.816 604.944 429.568 612.072 429.568C618.436 429.568 623.867 431.838 628.364 436.377C632.904 440.875 635.174 446.305 635.174 452.669V489.645ZM625.946 471.189C625.946 467.371 624.588 464.104 621.873 461.388C619.158 458.673 615.891 457.315 612.072 457.315C608.254 457.315 604.987 458.673 602.271 461.388C599.556 464.104 598.198 467.371 598.198 471.189C598.198 475.007 599.556 478.274 602.271 480.99C604.987 483.705 608.254 485.063 612.072 485.063C615.891 485.063 619.158 483.705 621.873 480.99C624.588 478.274 625.946 475.007 625.946 471.189Z" fill="#3B3938"/>
<path d="M663.693 408.821C663.693 410.73 662.993 412.363 661.593 413.721C660.235 415.036 658.602 415.694 656.693 415.694C654.783 415.694 653.129 415.036 651.729 413.721C650.371 412.363 649.692 410.73 649.692 408.821C649.692 406.911 650.371 405.278 651.729 403.92C653.129 402.52 654.783 401.82 656.693 401.82C658.602 401.82 660.235 402.52 661.593 403.92C662.993 405.278 663.693 406.911 663.693 408.821ZM661.338 434.15V489.645C661.338 492.742 659.79 494.291 656.693 494.291C653.595 494.291 652.047 492.742 652.047 489.645V434.15C652.047 431.095 653.595 429.568 656.693 429.568C659.79 429.568 661.338 431.095 661.338 434.15Z" fill="#3B3938"/>
<path d="M701.317 489.645C701.317 492.742 699.768 494.291 696.671 494.291C691.622 494.291 687.274 492.488 683.625 488.881C680.018 485.232 678.215 480.862 678.215 475.771V406.466C678.215 403.369 679.764 401.82 682.861 401.82C685.916 401.82 687.443 403.369 687.443 406.466V475.771C687.443 478.317 688.355 480.502 690.18 482.326C692.004 484.151 694.168 485.063 696.671 485.063C699.768 485.063 701.317 486.59 701.317 489.645Z" fill="#3B3938"/>
<path d="M833.863 406.275C833.863 407.039 833.672 407.781 833.29 408.502L792.051 490.918C790.948 493.209 789.442 494.354 787.532 494.354C785.666 494.354 784.159 493.209 783.014 490.918L741.774 408.502C741.393 407.781 741.202 407.039 741.202 406.275C741.202 405.045 741.69 403.984 742.665 403.093C743.684 402.202 744.829 401.756 746.102 401.756C747.884 401.756 749.199 402.626 750.048 404.366L787.532 479.335L825.017 404.366C825.866 402.626 827.202 401.756 829.027 401.756C830.257 401.756 831.36 402.202 832.336 403.093C833.354 403.984 833.863 405.045 833.863 406.275Z" fill="#3B3938"/>
<path d="M894.088 475.708C894.088 476.429 893.876 477.235 893.452 478.126C890.864 483.005 886.939 486.93 881.678 489.9C876.459 492.827 871.029 494.291 865.386 494.291C856.476 494.291 848.839 491.13 842.475 484.808C836.153 478.487 832.992 470.85 832.992 461.897C832.992 452.988 836.153 445.372 842.475 439.05C848.839 432.729 856.476 429.568 865.386 429.568C868.568 429.568 871.898 430.162 875.378 431.35C879.323 432.707 883.184 434.871 886.96 437.841C891.67 441.532 894.024 445.011 894.024 448.278C894.024 449.933 893.261 451.184 891.733 452.033L848.075 477.235C852.658 482.453 858.428 485.063 865.386 485.063C872.683 485.063 878.496 482.411 882.824 477.108C883.375 476.302 884.245 475.114 885.433 473.544C886.663 471.931 887.936 471.125 889.251 471.125C890.524 471.125 891.648 471.571 892.624 472.462C893.6 473.353 894.088 474.435 894.088 475.708ZM882.696 446.624C878.072 441.405 872.302 438.796 865.386 438.796C859.022 438.796 853.57 441.066 849.03 445.605C844.533 450.145 842.284 455.576 842.284 461.897C842.284 464.443 842.666 466.904 843.43 469.28L882.696 446.624Z" fill="#3B3938"/>
<path d="M943.239 441.278C943.239 442.508 942.729 443.569 941.711 444.46C940.735 445.351 939.632 445.796 938.402 445.796C937.171 445.796 935.559 444.629 933.565 442.296C931.571 439.962 929.216 438.796 926.501 438.796C923.955 438.796 921.77 439.708 919.946 441.532C918.164 443.357 917.273 445.52 917.273 448.024V489.645C917.273 492.742 915.724 494.291 912.627 494.291C909.53 494.291 907.981 492.742 907.981 489.645V434.15C907.981 431.095 909.53 429.568 912.627 429.568C914.706 429.568 916.127 430.459 916.891 432.241C919.819 430.459 923.022 429.568 926.501 429.568C929.683 429.568 932.78 430.416 935.793 432.113C938.847 433.81 941.096 436.038 942.538 438.796C943.005 439.729 943.239 440.556 943.239 441.278Z" fill="#3B3938"/>
<path d="M968.647 408.821C968.647 410.73 967.947 412.363 966.547 413.721C965.189 415.036 963.556 415.694 961.647 415.694C959.737 415.694 958.083 415.036 956.683 413.721C955.325 412.363 954.646 410.73 954.646 408.821C954.646 406.911 955.325 405.278 956.683 403.92C958.083 402.52 959.737 401.82 961.647 401.82C963.556 401.82 965.189 402.52 966.547 403.92C967.947 405.278 968.647 406.911 968.647 408.821ZM966.292 434.15V489.645C966.292 492.742 964.744 494.291 961.647 494.291C958.549 494.291 957.001 492.742 957.001 489.645V434.15C957.001 431.095 958.549 429.568 961.647 429.568C964.744 429.568 966.292 431.095 966.292 434.15Z" fill="#3B3938"/>
<path d="M1026.32 410.857C1026.32 413.997 1025.09 415.567 1022.63 415.567C1021.74 415.567 1020.34 414.824 1018.43 413.339C1016.52 411.812 1014.52 411.048 1012.44 411.048C1009.9 411.048 1007.71 411.96 1005.89 413.785C1004.11 415.609 1003.22 417.773 1003.22 420.276V429.568H1012.44C1015.54 429.568 1017.09 431.095 1017.09 434.15C1017.09 437.247 1015.54 438.796 1012.44 438.796H1003.22V489.645C1003.22 492.742 1001.67 494.291 998.57 494.291C995.473 494.291 993.925 492.742 993.925 489.645V438.796H984.697C981.599 438.796 980.051 437.247 980.051 434.15C980.051 431.095 981.599 429.568 984.697 429.568H993.925V420.276C993.925 415.227 995.728 410.9 999.334 407.293C1002.98 403.644 1007.35 401.82 1012.44 401.82C1015.92 401.82 1018.94 402.457 1021.48 403.729C1024.71 405.342 1026.32 407.718 1026.32 410.857Z" fill="#3B3938"/>
<path d="M1051.66 408.821C1051.66 410.73 1050.96 412.363 1049.56 413.721C1048.2 415.036 1046.57 415.694 1044.66 415.694C1042.75 415.694 1041.09 415.036 1039.69 413.721C1038.34 412.363 1037.66 410.73 1037.66 408.821C1037.66 406.911 1038.34 405.278 1039.69 403.92C1041.09 402.52 1042.75 401.82 1044.66 401.82C1046.57 401.82 1048.2 402.52 1049.56 403.92C1050.96 405.278 1051.66 406.911 1051.66 408.821ZM1049.3 434.15V489.645C1049.3 492.742 1047.75 494.291 1044.66 494.291C1041.56 494.291 1040.01 492.742 1040.01 489.645V434.15C1040.01 431.095 1041.56 429.568 1044.66 429.568C1047.75 429.568 1049.3 431.095 1049.3 434.15Z" fill="#3B3938"/>
<path d="M1119.77 442.232C1119.77 443.505 1119.28 444.629 1118.3 445.605C1117.37 446.539 1116.27 447.005 1114.99 447.005C1114.61 447.005 1112.32 445.648 1108.12 442.932C1103.96 440.175 1099.74 438.796 1095.46 438.796C1089.09 438.796 1083.64 441.066 1079.1 445.605C1074.6 450.145 1072.35 455.576 1072.35 461.897C1072.35 468.262 1074.6 473.713 1079.1 478.253C1083.64 482.793 1089.09 485.063 1095.46 485.063C1099.7 485.063 1103.9 483.705 1108.06 480.99C1112.26 478.232 1114.57 476.853 1114.99 476.853C1116.22 476.853 1117.31 477.341 1118.24 478.317C1119.21 479.293 1119.7 480.396 1119.7 481.626C1119.7 482.644 1119.24 483.726 1118.3 484.872C1115.84 487.757 1112.36 490.069 1107.87 491.809C1103.66 493.463 1099.53 494.291 1095.46 494.291C1086.55 494.291 1078.91 491.13 1072.54 484.808C1066.22 478.487 1063.06 470.85 1063.06 461.897C1063.06 452.988 1066.22 445.372 1072.54 439.05C1078.91 432.729 1086.55 429.568 1095.46 429.568C1099.53 429.568 1103.66 430.395 1107.87 432.05C1112.36 433.832 1115.84 436.165 1118.3 439.05C1119.28 440.153 1119.77 441.214 1119.77 442.232Z" fill="#3B3938"/>
<path d="M1173.67 489.645C1173.67 492.742 1172.12 494.291 1169.02 494.291C1165.92 494.291 1164.39 492.742 1164.44 489.645C1160.32 492.742 1155.7 494.291 1150.56 494.291C1144.2 494.291 1138.75 492.042 1134.21 487.545C1129.67 483.005 1127.4 477.553 1127.4 471.189C1127.4 464.825 1129.67 459.373 1134.21 454.833C1138.75 450.293 1144.2 448.024 1150.56 448.024C1155.7 448.024 1160.32 449.572 1164.44 452.669C1164.44 448.851 1163.08 445.584 1160.36 442.869C1157.65 440.153 1154.38 438.796 1150.56 438.796C1147.89 438.796 1145.2 439.729 1142.48 441.596C1139.81 443.42 1138.15 444.332 1137.52 444.332C1136.24 444.332 1135.12 443.866 1134.14 442.932C1133.21 441.956 1132.74 440.832 1132.74 439.559C1132.74 438.541 1133.23 437.459 1134.21 436.314C1137.98 431.816 1143.44 429.568 1150.56 429.568C1156.93 429.568 1162.36 431.838 1166.86 436.377C1171.4 440.875 1173.67 446.305 1173.67 452.669V489.645ZM1164.44 471.189C1164.44 467.371 1163.08 464.104 1160.36 461.388C1157.65 458.673 1154.38 457.315 1150.56 457.315C1146.74 457.315 1143.48 458.673 1140.76 461.388C1138.05 464.104 1136.69 467.371 1136.69 471.189C1136.69 475.007 1138.05 478.274 1140.76 480.99C1143.48 483.705 1146.74 485.063 1150.56 485.063C1154.38 485.063 1157.65 483.705 1160.36 480.99C1163.08 478.274 1164.44 475.007 1164.44 471.189Z" fill="#3B3938"/>
<path d="M1230.63 485.254C1230.63 488.393 1229.02 490.769 1225.8 492.382C1223.25 493.654 1220.24 494.291 1216.76 494.291C1211.67 494.291 1207.3 492.488 1203.65 488.881C1200.04 485.232 1198.24 480.862 1198.24 475.771V438.796H1189.01C1185.91 438.796 1184.36 437.247 1184.36 434.15C1184.36 431.095 1185.91 429.568 1189.01 429.568H1198.24V406.466C1198.24 403.369 1199.79 401.82 1202.88 401.82C1205.98 401.82 1207.53 403.369 1207.53 406.466V429.568H1216.76C1219.86 429.568 1221.4 431.095 1221.4 434.15C1221.4 437.247 1219.86 438.796 1216.76 438.796H1207.53V475.771C1207.53 478.317 1208.42 480.502 1210.2 482.326C1212.03 484.151 1214.21 485.063 1216.76 485.063C1218.84 485.063 1220.83 484.299 1222.74 482.772C1224.65 481.244 1226.05 480.481 1226.94 480.481C1229.4 480.481 1230.63 482.072 1230.63 485.254Z" fill="#3B3938"/>
<path d="M1255.97 408.821C1255.97 410.73 1255.27 412.363 1253.87 413.721C1252.51 415.036 1250.88 415.694 1248.97 415.694C1247.06 415.694 1245.41 415.036 1244.01 413.721C1242.65 412.363 1241.97 410.73 1241.97 408.821C1241.97 406.911 1242.65 405.278 1244.01 403.92C1245.41 402.52 1247.06 401.82 1248.97 401.82C1250.88 401.82 1252.51 402.52 1253.87 403.92C1255.27 405.278 1255.97 406.911 1255.97 408.821ZM1253.62 434.15V489.645C1253.62 492.742 1252.07 494.291 1248.97 494.291C1245.87 494.291 1244.33 492.742 1244.33 489.645V434.15C1244.33 431.095 1245.87 429.568 1248.97 429.568C1252.07 429.568 1253.62 431.095 1253.62 434.15Z" fill="#3B3938"/>
<path d="M1332.16 461.897C1332.16 470.85 1328.98 478.487 1322.62 484.808C1316.29 491.13 1308.68 494.291 1299.77 494.291C1290.86 494.291 1283.22 491.13 1276.86 484.808C1270.54 478.487 1267.38 470.85 1267.38 461.897C1267.38 452.988 1270.54 445.372 1276.86 439.05C1283.22 432.729 1290.86 429.568 1299.77 429.568C1308.68 429.568 1316.29 432.729 1322.62 439.05C1328.98 445.372 1332.16 452.988 1332.16 461.897ZM1322.87 461.897C1322.87 455.576 1320.6 450.145 1316.06 445.605C1311.56 441.066 1306.13 438.796 1299.77 438.796C1293.41 438.796 1287.95 441.066 1283.41 445.605C1278.92 450.145 1276.67 455.576 1276.67 461.897C1276.67 468.262 1278.92 473.713 1283.41 478.253C1287.95 482.793 1293.41 485.063 1299.77 485.063C1306.13 485.063 1311.56 482.793 1316.06 478.253C1320.6 473.713 1322.87 468.262 1322.87 461.897Z" fill="#3B3938"/>
<path d="M1392.24 489.645C1392.24 492.742 1390.7 494.291 1387.6 494.291C1384.54 494.291 1383.02 492.742 1383.02 489.645V452.669C1383.02 448.851 1381.64 445.584 1378.88 442.869C1376.16 440.153 1372.92 438.796 1369.14 438.796C1365.32 438.796 1362.06 440.153 1359.34 442.869C1356.63 445.584 1355.27 448.851 1355.27 452.669V489.645C1355.27 492.742 1353.72 494.291 1350.62 494.291C1347.53 494.291 1345.98 492.742 1345.98 489.645V434.15C1345.98 431.095 1347.53 429.568 1350.62 429.568C1353.72 429.568 1355.27 431.095 1355.27 434.15C1359.34 431.095 1363.97 429.568 1369.14 429.568C1375.46 429.568 1380.9 431.838 1385.43 436.377C1389.97 440.875 1392.24 446.305 1392.24 452.669V489.645Z" fill="#3B3938"/>
<path d="M481.154 489.645C481.154 492.742 479.627 494.291 476.572 494.291H430.305C429.075 494.291 427.993 493.824 427.059 492.891C426.126 491.957 425.659 490.875 425.659 489.645V406.466C425.659 405.236 426.126 404.154 427.059 403.22C427.993 402.287 429.075 401.82 430.305 401.82H476.572C479.627 401.82 481.154 403.369 481.154 406.466C481.154 409.521 479.627 411.048 476.572 411.048H434.951V443.441H467.281C470.378 443.441 471.926 444.969 471.926 448.024C471.926 451.121 470.378 452.669 467.281 452.669H434.951V485.063H476.572C479.627 485.063 481.154 486.59 481.154 489.645Z" stroke="#3B3938" stroke-width="5"/>
<path d="M578.151 489.645C578.151 492.742 576.602 494.291 573.505 494.291C570.45 494.291 568.923 492.742 568.923 489.645V452.669C568.923 448.851 567.565 445.584 564.85 442.869C562.135 440.153 558.868 438.796 555.049 438.796C551.231 438.796 547.964 440.153 545.248 442.869C542.533 445.584 541.175 448.851 541.175 452.669V489.645C541.175 492.742 539.627 494.291 536.53 494.291C533.475 494.291 531.947 492.742 531.947 489.645V452.669C531.947 448.851 530.569 445.584 527.811 442.869C525.095 440.153 521.85 438.796 518.074 438.796C514.255 438.796 510.988 440.153 508.273 442.869C505.558 445.584 504.2 448.851 504.2 452.669V489.645C504.2 492.742 502.651 494.291 499.554 494.291C496.457 494.291 494.908 492.742 494.908 489.645V434.15C494.908 431.095 496.457 429.568 499.554 429.568C502.651 429.568 504.2 431.095 504.2 434.15C508.273 431.095 512.898 429.568 518.074 429.568C525.753 429.568 531.905 432.644 536.53 438.796C541.154 432.644 547.327 429.568 555.049 429.568C561.413 429.568 566.844 431.838 571.341 436.377C575.881 440.875 578.151 446.305 578.151 452.669V489.645Z" stroke="#3B3938" stroke-width="5"/>
<path d="M635.174 489.645C635.174 492.742 633.625 494.291 630.528 494.291C627.431 494.291 625.904 492.742 625.946 489.645C621.83 492.742 617.206 494.291 612.072 494.291C605.708 494.291 600.256 492.042 595.716 487.545C591.177 483.005 588.907 477.553 588.907 471.189C588.907 464.825 591.177 459.373 595.716 454.833C600.256 450.293 605.708 448.024 612.072 448.024C617.206 448.024 621.83 449.572 625.946 452.669C625.946 448.851 624.588 445.584 621.873 442.869C619.158 440.153 615.891 438.796 612.072 438.796C609.399 438.796 606.705 439.729 603.99 441.596C601.317 443.42 599.662 444.332 599.026 444.332C597.753 444.332 596.629 443.866 595.653 442.932C594.719 441.956 594.253 440.832 594.253 439.559C594.253 438.541 594.741 437.459 595.716 436.314C599.492 431.816 604.944 429.568 612.072 429.568C618.436 429.568 623.867 431.838 628.364 436.377C632.904 440.875 635.174 446.305 635.174 452.669V489.645ZM625.946 471.189C625.946 467.371 624.588 464.104 621.873 461.388C619.158 458.673 615.891 457.315 612.072 457.315C608.254 457.315 604.987 458.673 602.271 461.388C599.556 464.104 598.198 467.371 598.198 471.189C598.198 475.007 599.556 478.274 602.271 480.99C604.987 483.705 608.254 485.063 612.072 485.063C615.891 485.063 619.158 483.705 621.873 480.99C624.588 478.274 625.946 475.007 625.946 471.189Z" stroke="#3B3938" stroke-width="5"/>
<path d="M663.693 408.821C663.693 410.73 662.993 412.363 661.593 413.721C660.235 415.036 658.602 415.694 656.693 415.694C654.783 415.694 653.129 415.036 651.729 413.721C650.371 412.363 649.692 410.73 649.692 408.821C649.692 406.911 650.371 405.278 651.729 403.92C653.129 402.52 654.783 401.82 656.693 401.82C658.602 401.82 660.235 402.52 661.593 403.92C662.993 405.278 663.693 406.911 663.693 408.821ZM661.338 434.15V489.645C661.338 492.742 659.79 494.291 656.693 494.291C653.595 494.291 652.047 492.742 652.047 489.645V434.15C652.047 431.095 653.595 429.568 656.693 429.568C659.79 429.568 661.338 431.095 661.338 434.15Z" stroke="#3B3938" stroke-width="5"/>
<path d="M701.317 489.645C701.317 492.742 699.768 494.291 696.671 494.291C691.622 494.291 687.274 492.488 683.625 488.881C680.018 485.232 678.215 480.862 678.215 475.771V406.466C678.215 403.369 679.764 401.82 682.861 401.82C685.916 401.82 687.443 403.369 687.443 406.466V475.771C687.443 478.317 688.355 480.502 690.18 482.326C692.004 484.151 694.168 485.063 696.671 485.063C699.768 485.063 701.317 486.59 701.317 489.645Z" stroke="#3B3938" stroke-width="5"/>
<path d="M833.863 406.275C833.863 407.039 833.672 407.781 833.29 408.502L792.051 490.918C790.948 493.209 789.442 494.354 787.532 494.354C785.666 494.354 784.159 493.209 783.014 490.918L741.774 408.502C741.393 407.781 741.202 407.039 741.202 406.275C741.202 405.045 741.69 403.984 742.665 403.093C743.684 402.202 744.829 401.756 746.102 401.756C747.884 401.756 749.199 402.626 750.048 404.366L787.532 479.335L825.017 404.366C825.866 402.626 827.202 401.756 829.027 401.756C830.257 401.756 831.36 402.202 832.336 403.093C833.354 403.984 833.863 405.045 833.863 406.275Z" stroke="#3B3938" stroke-width="5"/>
<path d="M894.088 475.708C894.088 476.429 893.876 477.235 893.452 478.126C890.864 483.005 886.939 486.93 881.678 489.9C876.459 492.827 871.029 494.291 865.386 494.291C856.476 494.291 848.839 491.13 842.475 484.808C836.153 478.487 832.992 470.85 832.992 461.897C832.992 452.988 836.153 445.372 842.475 439.05C848.839 432.729 856.476 429.568 865.386 429.568C868.568 429.568 871.898 430.162 875.378 431.35C879.323 432.707 883.184 434.871 886.96 437.841C891.67 441.532 894.024 445.011 894.024 448.278C894.024 449.933 893.261 451.184 891.733 452.033L848.075 477.235C852.658 482.453 858.428 485.063 865.386 485.063C872.683 485.063 878.496 482.411 882.824 477.108C883.375 476.302 884.245 475.114 885.433 473.544C886.663 471.931 887.936 471.125 889.251 471.125C890.524 471.125 891.648 471.571 892.624 472.462C893.6 473.353 894.088 474.435 894.088 475.708ZM882.696 446.624C878.072 441.405 872.302 438.796 865.386 438.796C859.022 438.796 853.57 441.066 849.03 445.605C844.533 450.145 842.284 455.576 842.284 461.897C842.284 464.443 842.666 466.904 843.43 469.28L882.696 446.624Z" stroke="#3B3938" stroke-width="5"/>
<path d="M943.239 441.278C943.239 442.508 942.729 443.569 941.711 444.46C940.735 445.351 939.632 445.796 938.402 445.796C937.171 445.796 935.559 444.629 933.565 442.296C931.571 439.962 929.216 438.796 926.501 438.796C923.955 438.796 921.77 439.708 919.946 441.532C918.164 443.357 917.273 445.52 917.273 448.024V489.645C917.273 492.742 915.724 494.291 912.627 494.291C909.53 494.291 907.981 492.742 907.981 489.645V434.15C907.981 431.095 909.53 429.568 912.627 429.568C914.706 429.568 916.127 430.459 916.891 432.241C919.819 430.459 923.022 429.568 926.501 429.568C929.683 429.568 932.78 430.416 935.793 432.113C938.847 433.81 941.096 436.038 942.538 438.796C943.005 439.729 943.239 440.556 943.239 441.278Z" stroke="#3B3938" stroke-width="5"/>
<path d="M968.647 408.821C968.647 410.73 967.947 412.363 966.547 413.721C965.189 415.036 963.556 415.694 961.647 415.694C959.737 415.694 958.083 415.036 956.683 413.721C955.325 412.363 954.646 410.73 954.646 408.821C954.646 406.911 955.325 405.278 956.683 403.92C958.083 402.52 959.737 401.82 961.647 401.82C963.556 401.82 965.189 402.52 966.547 403.92C967.947 405.278 968.647 406.911 968.647 408.821ZM966.292 434.15V489.645C966.292 492.742 964.744 494.291 961.647 494.291C958.549 494.291 957.001 492.742 957.001 489.645V434.15C957.001 431.095 958.549 429.568 961.647 429.568C964.744 429.568 966.292 431.095 966.292 434.15Z" stroke="#3B3938" stroke-width="5"/>
<path d="M1026.32 410.857C1026.32 413.997 1025.09 415.567 1022.63 415.567C1021.74 415.567 1020.34 414.824 1018.43 413.339C1016.52 411.812 1014.52 411.048 1012.44 411.048C1009.9 411.048 1007.71 411.96 1005.89 413.785C1004.11 415.609 1003.22 417.773 1003.22 420.276V429.568H1012.44C1015.54 429.568 1017.09 431.095 1017.09 434.15C1017.09 437.247 1015.54 438.796 1012.44 438.796H1003.22V489.645C1003.22 492.742 1001.67 494.291 998.57 494.291C995.473 494.291 993.925 492.742 993.925 489.645V438.796H984.697C981.599 438.796 980.051 437.247 980.051 434.15C980.051 431.095 981.599 429.568 984.697 429.568H993.925V420.276C993.925 415.227 995.728 410.9 999.334 407.293C1002.98 403.644 1007.35 401.82 1012.44 401.82C1015.92 401.82 1018.94 402.457 1021.48 403.729C1024.71 405.342 1026.32 407.718 1026.32 410.857Z" stroke="#3B3938" stroke-width="5"/>
<path d="M1051.66 408.821C1051.66 410.73 1050.96 412.363 1049.56 413.721C1048.2 415.036 1046.57 415.694 1044.66 415.694C1042.75 415.694 1041.09 415.036 1039.69 413.721C1038.34 412.363 1037.66 410.73 1037.66 408.821C1037.66 406.911 1038.34 405.278 1039.69 403.92C1041.09 402.52 1042.75 401.82 1044.66 401.82C1046.57 401.82 1048.2 402.52 1049.56 403.92C1050.96 405.278 1051.66 406.911 1051.66 408.821ZM1049.3 434.15V489.645C1049.3 492.742 1047.75 494.291 1044.66 494.291C1041.56 494.291 1040.01 492.742 1040.01 489.645V434.15C1040.01 431.095 1041.56 429.568 1044.66 429.568C1047.75 429.568 1049.3 431.095 1049.3 434.15Z" stroke="#3B3938" stroke-width="5"/>
<path d="M1119.77 442.232C1119.77 443.505 1119.28 444.629 1118.3 445.605C1117.37 446.539 1116.27 447.005 1114.99 447.005C1114.61 447.005 1112.32 445.648 1108.12 442.932C1103.96 440.175 1099.74 438.796 1095.46 438.796C1089.09 438.796 1083.64 441.066 1079.1 445.605C1074.6 450.145 1072.35 455.576 1072.35 461.897C1072.35 468.262 1074.6 473.713 1079.1 478.253C1083.64 482.793 1089.09 485.063 1095.46 485.063C1099.7 485.063 1103.9 483.705 1108.06 480.99C1112.26 478.232 1114.57 476.853 1114.99 476.853C1116.22 476.853 1117.31 477.341 1118.24 478.317C1119.21 479.293 1119.7 480.396 1119.7 481.626C1119.7 482.644 1119.24 483.726 1118.3 484.872C1115.84 487.757 1112.36 490.069 1107.87 491.809C1103.66 493.463 1099.53 494.291 1095.46 494.291C1086.55 494.291 1078.91 491.13 1072.54 484.808C1066.22 478.487 1063.06 470.85 1063.06 461.897C1063.06 452.988 1066.22 445.372 1072.54 439.05C1078.91 432.729 1086.55 429.568 1095.46 429.568C1099.53 429.568 1103.66 430.395 1107.87 432.05C1112.36 433.832 1115.84 436.165 1118.3 439.05C1119.28 440.153 1119.77 441.214 1119.77 442.232Z" stroke="#3B3938" stroke-width="5"/>
<path d="M1173.67 489.645C1173.67 492.742 1172.12 494.291 1169.02 494.291C1165.92 494.291 1164.39 492.742 1164.44 489.645C1160.32 492.742 1155.7 494.291 1150.56 494.291C1144.2 494.291 1138.75 492.042 1134.21 487.545C1129.67 483.005 1127.4 477.553 1127.4 471.189C1127.4 464.825 1129.67 459.373 1134.21 454.833C1138.75 450.293 1144.2 448.024 1150.56 448.024C1155.7 448.024 1160.32 449.572 1164.44 452.669C1164.44 448.851 1163.08 445.584 1160.36 442.869C1157.65 440.153 1154.38 438.796 1150.56 438.796C1147.89 438.796 1145.2 439.729 1142.48 441.596C1139.81 443.42 1138.15 444.332 1137.52 444.332C1136.24 444.332 1135.12 443.866 1134.14 442.932C1133.21 441.956 1132.74 440.832 1132.74 439.559C1132.74 438.541 1133.23 437.459 1134.21 436.314C1137.98 431.816 1143.44 429.568 1150.56 429.568C1156.93 429.568 1162.36 431.838 1166.86 436.377C1171.4 440.875 1173.67 446.305 1173.67 452.669V489.645ZM1164.44 471.189C1164.44 467.371 1163.08 464.104 1160.36 461.388C1157.65 458.673 1154.38 457.315 1150.56 457.315C1146.74 457.315 1143.48 458.673 1140.76 461.388C1138.05 464.104 1136.69 467.371 1136.69 471.189C1136.69 475.007 1138.05 478.274 1140.76 480.99C1143.48 483.705 1146.74 485.063 1150.56 485.063C1154.38 485.063 1157.65 483.705 1160.36 480.99C1163.08 478.274 1164.44 475.007 1164.44 471.189Z" stroke="#3B3938" stroke-width="5"/>
<path d="M1230.63 485.254C1230.63 488.393 1229.02 490.769 1225.8 492.382C1223.25 493.654 1220.24 494.291 1216.76 494.291C1211.67 494.291 1207.3 492.488 1203.65 488.881C1200.04 485.232 1198.24 480.862 1198.24 475.771V438.796H1189.01C1185.91 438.796 1184.36 437.247 1184.36 434.15C1184.36 431.095 1185.91 429.568 1189.01 429.568H1198.24V406.466C1198.24 403.369 1199.79 401.82 1202.88 401.82C1205.98 401.82 1207.53 403.369 1207.53 406.466V429.568H1216.76C1219.86 429.568 1221.4 431.095 1221.4 434.15C1221.4 437.247 1219.86 438.796 1216.76 438.796H1207.53V475.771C1207.53 478.317 1208.42 480.502 1210.2 482.326C1212.03 484.151 1214.21 485.063 1216.76 485.063C1218.84 485.063 1220.83 484.299 1222.74 482.772C1224.65 481.244 1226.05 480.481 1226.94 480.481C1229.4 480.481 1230.63 482.072 1230.63 485.254Z" stroke="#3B3938" stroke-width="5"/>
<path d="M1255.97 408.821C1255.97 410.73 1255.27 412.363 1253.87 413.721C1252.51 415.036 1250.88 415.694 1248.97 415.694C1247.06 415.694 1245.41 415.036 1244.01 413.721C1242.65 412.363 1241.97 410.73 1241.97 408.821C1241.97 406.911 1242.65 405.278 1244.01 403.92C1245.41 402.52 1247.06 401.82 1248.97 401.82C1250.88 401.82 1252.51 402.52 1253.87 403.92C1255.27 405.278 1255.97 406.911 1255.97 408.821ZM1253.62 434.15V489.645C1253.62 492.742 1252.07 494.291 1248.97 494.291C1245.87 494.291 1244.33 492.742 1244.33 489.645V434.15C1244.33 431.095 1245.87 429.568 1248.97 429.568C1252.07 429.568 1253.62 431.095 1253.62 434.15Z" stroke="#3B3938" stroke-width="5"/>
<path d="M1332.16 461.897C1332.16 470.85 1328.98 478.487 1322.62 484.808C1316.29 491.13 1308.68 494.291 1299.77 494.291C1290.86 494.291 1283.22 491.13 1276.86 484.808C1270.54 478.487 1267.38 470.85 1267.38 461.897C1267.38 452.988 1270.54 445.372 1276.86 439.05C1283.22 432.729 1290.86 429.568 1299.77 429.568C1308.68 429.568 1316.29 432.729 1322.62 439.05C1328.98 445.372 1332.16 452.988 1332.16 461.897ZM1322.87 461.897C1322.87 455.576 1320.6 450.145 1316.06 445.605C1311.56 441.066 1306.13 438.796 1299.77 438.796C1293.41 438.796 1287.95 441.066 1283.41 445.605C1278.92 450.145 1276.67 455.576 1276.67 461.897C1276.67 468.262 1278.92 473.713 1283.41 478.253C1287.95 482.793 1293.41 485.063 1299.77 485.063C1306.13 485.063 1311.56 482.793 1316.06 478.253C1320.6 473.713 1322.87 468.262 1322.87 461.897Z" stroke="#3B3938" stroke-width="5"/>
<path d="M1392.24 489.645C1392.24 492.742 1390.7 494.291 1387.6 494.291C1384.54 494.291 1383.02 492.742 1383.02 489.645V452.669C1383.02 448.851 1381.64 445.584 1378.88 442.869C1376.16 440.153 1372.92 438.796 1369.14 438.796C1365.32 438.796 1362.06 440.153 1359.34 442.869C1356.63 445.584 1355.27 448.851 1355.27 452.669V489.645C1355.27 492.742 1353.72 494.291 1350.62 494.291C1347.53 494.291 1345.98 492.742 1345.98 489.645V434.15C1345.98 431.095 1347.53 429.568 1350.62 429.568C1353.72 429.568 1355.27 431.095 1355.27 434.15C1359.34 431.095 1363.97 429.568 1369.14 429.568C1375.46 429.568 1380.9 431.838 1385.43 436.377C1389.97 440.875 1392.24 446.305 1392.24 452.669V489.645Z" stroke="#3B3938" stroke-width="5"/>
<defs>
<clipPath id="clip0_17_245">
<rect width="1426.61" height="404.812" fill="white" transform="translate(0.452026 0.141052)"/>
</clipPath>
</defs>
</svg>
