<svg width="39" height="39" viewBox="0 0 39 39" fill="none" xmlns="http://www.w3.org/2000/svg">
<rect x="9" y="7" width="22" height="25" fill="white"/>
<path d="M0 19.2511C0 14.1454 2.05096 9.24878 5.70168 5.63851C9.35241 2.02823 14.3039 0 19.4668 0C24.6297 0 29.5811 2.02823 33.2318 5.63851C36.8826 9.24878 38.9335 14.1454 38.9335 19.2511C38.9335 24.3568 36.8826 29.2533 33.2318 32.8636C29.5811 36.4739 24.6297 38.5021 19.4668 38.5021C14.3039 38.5021 9.35241 36.4739 5.70168 32.8636C2.05096 29.2533 0 24.3568 0 19.2511ZM14.3187 11.0543C14.3187 11.059 14.3162 11.0632 14.3121 11.0655C13.7381 11.3823 13.3834 11.9893 13.3834 12.6335V25.8686C13.3834 26.5229 13.7408 27.1244 14.3187 27.4403C14.8966 27.7561 15.5962 27.7486 16.1665 27.4027L27.1166 20.7851C27.6565 20.4543 27.9911 19.8752 27.9911 19.2435C27.9911 18.6119 27.6565 18.0328 27.1166 17.702L16.1665 11.0844C15.606 10.7473 14.902 10.7311 14.3253 11.0432C14.3213 11.0454 14.3187 11.0497 14.3187 11.0543V11.0543Z" fill="#078DEE"/>
</svg>
