<svg width="32" height="32" viewBox="0 0 32 32" fill="none" xmlns="http://www.w3.org/2000/svg">
<path d="M28.7988 16.2187H15.7811V3.20099C15.7811 3.041 15.6501 2.91009 15.4902 2.91009H14.5447C12.6346 2.90696 10.7427 3.28156 8.97792 4.01232C7.21312 4.74308 5.61022 5.81558 4.26145 7.16812C2.93317 8.49231 1.87481 10.0619 1.14519 11.7898C0.385956 13.5819 -0.00363289 15.5088 -0.000221935 17.455C-0.00334977 19.3651 0.371242 21.257 1.102 23.0218C1.83276 24.7866 2.90527 26.3895 4.25781 27.7383C5.59231 29.0728 7.14862 30.1237 8.87947 30.8546C10.6715 31.6138 12.5985 32.0034 14.5447 32C16.4548 32.0031 18.3467 31.6285 20.1115 30.8978C21.8764 30.167 23.4792 29.0945 24.828 27.7419C26.1625 26.4074 27.2134 24.8511 27.9443 23.1203C28.7035 21.3282 29.0931 19.4013 29.0897 17.455V16.5096C29.0897 16.3496 28.9588 16.2187 28.7988 16.2187ZM23.0426 26.0293C21.9166 27.1465 20.5813 28.0305 19.1131 28.6307C17.6449 29.231 16.0727 29.5357 14.4866 29.5273C11.283 29.5128 8.27222 28.2583 6.00684 25.9929C3.72692 23.713 2.47242 20.6804 2.47242 17.455C2.47242 14.2297 3.72692 11.1971 6.00684 8.91715C7.99223 6.93177 10.5485 5.7209 13.3084 5.44455V18.6914H26.5552C26.2752 21.4658 25.0535 24.0366 23.0426 26.0293ZM31.9987 14.197L31.9041 13.1715C31.5951 9.82258 30.1078 6.66269 27.7152 4.27732C25.3209 1.88757 22.1675 0.408601 18.7991 0.0956465L17.7701 0.00110442C17.5992 -0.0134405 17.4537 0.117464 17.4537 0.288367V14.2551C17.4537 14.4151 17.5846 14.546 17.7446 14.546L31.7078 14.5097C31.8787 14.5097 32.0132 14.3642 31.9987 14.197ZM19.9191 12.0807V2.7501C22.2097 3.22953 24.3117 4.36392 25.9698 6.01544C27.6316 7.67356 28.7697 9.78258 29.2424 12.0552L19.9191 12.0807Z" fill="#7D6ADB"/>
</svg>
