<svg width="32" height="32" viewBox="0 0 32 32" fill="none" xmlns="http://www.w3.org/2000/svg">
<path d="M16 0C7.17733 0 0 7.17733 0 16C0 24.8227 7.17733 32 16 32C24.8227 32 32 24.8227 32 16H28.4C28.4 22.8373 22.8373 28.4 16 28.4C9.16267 28.4 3.6 22.8373 3.6 16C3.6 9.16267 9.16267 3.6 16 3.6V0ZM25.8667 3.444L15.86 15.9387L11.184 12.1067L8.51467 15.3547L14.836 20.5387C15.0508 20.7158 15.2986 20.8484 15.5652 20.9288C15.8317 21.0091 16.1116 21.0356 16.3884 21.0067C16.6653 20.9778 16.9337 20.8941 17.1779 20.7604C17.422 20.6267 17.6371 20.4457 17.8107 20.228L29.1493 6.072L25.8667 3.444Z" fill="#00B8D9"/>
</svg>
