<svg width="32" height="32" viewBox="0 0 32 32" fill="none" xmlns="http://www.w3.org/2000/svg">
<path fill-rule="evenodd" clip-rule="evenodd" d="M13.5849 29.5385H28.3077C28.6341 29.5385 28.9472 29.4088 29.178 29.178C29.4088 28.9472 29.5385 28.6341 29.5385 28.3077V11.0769H12.3077V11.079H9.84615V11.0769H2.46154V11.079H0V9.84615C0 9.51973 0.12967 9.20668 0.360484 8.97587C0.591298 8.74506 0.904349 8.61538 1.23077 8.61538H29.5385V3.69231C29.5385 3.36589 29.4088 3.05284 29.178 2.82202C28.9472 2.59121 28.6341 2.46154 28.3077 2.46154H3.69231C3.36589 2.46154 3.05284 2.59121 2.82202 2.82202C2.59121 3.05284 2.46154 3.36589 2.46154 3.69231V4.92308C2.46154 5.2495 2.33187 5.56255 2.10105 5.79336C1.87024 6.02418 1.55719 6.15385 1.23077 6.15385C0.904349 6.15385 0.591298 6.02418 0.360484 5.79336C0.12967 5.56255 0 5.2495 0 4.92308V3.69231C0 2.71305 0.38901 1.77389 1.08145 1.08145C1.77389 0.38901 2.71305 0 3.69231 0H28.3077C29.287 0 30.2261 0.38901 30.9185 1.08145C31.611 1.77389 32 2.71305 32 3.69231V28.3077C32 29.287 31.611 30.2261 30.9185 30.9185C30.2261 31.611 29.287 32 28.3077 32H13.5849V29.5385Z" fill="#0EB567"/>
<path d="M9.0566 13.4716C10.512 13.4715 11.9347 13.9031 13.1448 14.7116C14.3549 15.5202 15.2981 16.6694 15.8551 18.0141C16.412 19.3587 16.5578 20.8382 16.2738 22.2656C15.9899 23.6931 15.289 25.0042 14.2599 26.0333C13.5774 26.7201 12.766 27.2655 11.8724 27.6381C10.9787 28.0108 10.0202 28.2034 9.05199 28.2049C8.08374 28.2064 7.1247 28.0168 6.22986 27.647C5.33501 27.2772 4.52195 26.7344 3.83728 26.0497C3.15261 25.3651 2.60979 24.552 2.23993 23.6572C1.87008 22.7624 1.68046 21.8033 1.68195 20.8351C1.68344 19.8668 1.876 18.9084 2.24861 18.0147C2.62121 17.121 3.16653 16.3096 3.8533 15.6271C4.535 14.9416 5.34589 14.3981 6.23904 14.0281C7.13218 13.6581 8.08985 13.4689 9.0566 13.4716ZM9.0566 11.7734C4.05495 11.7734 0 15.8284 0 20.83C0 25.8317 4.05495 29.8866 9.0566 29.8866C14.0583 29.8866 18.1132 25.832 18.1132 20.83C18.1132 15.828 14.0583 11.7734 9.0566 11.7734Z" fill="#0EB567"/>
<path d="M7.71499 24.748C7.60339 24.7483 7.49283 24.7265 7.38963 24.684C7.28644 24.6415 7.19263 24.5791 7.11358 24.5004L4.19035 21.5771C4.03326 21.4175 3.94563 21.2022 3.94654 20.9782C3.94745 20.7542 4.03683 20.5397 4.19522 20.3813C4.3536 20.2229 4.56815 20.1335 4.79213 20.1326C5.01612 20.1317 5.23139 20.2193 5.39105 20.3764L7.69907 22.6841L12.6455 17.4875C12.7222 17.4059 12.8142 17.3402 12.9164 17.2943C13.0185 17.2484 13.1287 17.2232 13.2406 17.2201C13.3525 17.2169 13.464 17.236 13.5685 17.2761C13.6731 17.3162 13.7686 17.3765 13.8497 17.4537C13.9308 17.5309 13.9959 17.6234 14.0411 17.7258C14.0863 17.8282 14.1109 17.9386 14.1133 18.0506C14.1157 18.1625 14.0959 18.2738 14.0551 18.3781C14.0143 18.4824 13.9533 18.5775 13.8756 18.6581L8.32985 24.4844C8.25179 24.5664 8.15812 24.632 8.05435 24.6772C7.95058 24.7225 7.83881 24.7466 7.72561 24.748H7.71499Z" fill="#0EB567"/>
</svg>
