<svg width="32" height="30" viewBox="0 0 32 30" fill="none" xmlns="http://www.w3.org/2000/svg">
<path d="M4.94073 28.1709C6.33926 28.9177 8.19852 28.3528 9.01681 26.9326L14.1944 17.2361C14.1944 17.2361 14.2723 16.9781 14.2506 16.9066L14.5112 11.594C14.5239 11.1215 13.9491 10.515 13.2992 10.9468L9.12262 14.1684C9.00132 14.2834 8.88003 14.3983 8.88003 14.3983L3.72411 24.1663C2.69402 26.432 4.21657 27.8441 4.94073 28.1709ZM12.9561 13.16L12.8647 15.6873L11 14.6916L12.9561 13.16ZM5.02941 24.8633L9.85855 15.8195L12.4691 17.2134L7.64 26.2573C7.24172 27.0032 6.31209 27.2856 5.63772 26.8656C5.26478 26.6665 4.5035 25.9604 5.02941 24.8633Z" fill="#05A6C6"/>
<path fill-rule="evenodd" clip-rule="evenodd" d="M15.5778 26.3417H28.7073C28.9984 26.3417 29.2775 26.2261 29.4834 26.0202C29.6892 25.8144 29.8049 25.5352 29.8049 25.2441V9.87814H14.4389V9.88H12.2437V9.87814H5.65828V9.88H3.46313V8.78057C3.46313 8.48948 3.57877 8.21031 3.78461 8.00447C3.99044 7.79864 4.26961 7.683 4.56071 7.683H29.8049V3.29271C29.8049 3.00162 29.6892 2.72245 29.4834 2.51661C29.2775 2.31078 28.9984 2.19514 28.7073 2.19514H6.75585C6.46476 2.19514 6.18558 2.31078 5.97975 2.51661C5.77391 2.72245 5.65828 3.00162 5.65828 3.29271V4.39029C5.65828 4.68138 5.54264 4.96055 5.33681 5.16639C5.13097 5.37222 4.8518 5.48786 4.56071 5.48786C4.26961 5.48786 3.99044 5.37222 3.78461 5.16639C3.57877 4.96055 3.46313 4.68138 3.46313 4.39029V3.29271C3.46313 2.41943 3.81004 1.58192 4.42755 0.964414C5.04505 0.34691 5.88257 0 6.75585 0H28.7073C29.5806 0 30.4181 0.34691 31.0356 0.964414C31.6531 1.58192 32 2.41943 32 3.29271V25.2441C32 26.1174 31.6531 26.9549 31.0356 27.5724C30.4181 28.19 29.5806 28.5369 28.7073 28.5369H15.5778V26.3417Z" fill="#05A6C6"/>
</svg>
