<svg width="33" height="33" viewBox="0 0 33 33" fill="none" xmlns="http://www.w3.org/2000/svg">
<path d="M32.4463 16C32.4463 12.7003 31.4261 9.48127 29.5254 6.78393C27.6248 4.08658 24.9366 2.04285 21.8293 0.932706C18.7219 -0.177442 15.3473 -0.299706 12.1678 0.582664C8.98821 1.46503 6.15924 3.30888 4.06837 5.8616C1.9775 8.41433 0.727026 11.5511 0.488239 14.8421C0.249451 18.1332 1.03403 21.4176 2.73451 24.2454C4.43498 27.0732 6.96817 29.3061 9.98705 30.6382C13.0059 31.9703 16.3628 32.3365 19.5979 31.6865L18.7343 27.388C16.3857 27.8599 13.9487 27.5941 11.757 26.627C9.5654 25.6599 7.72637 24.0389 6.49187 21.986C5.25737 19.9331 4.68778 17.5487 4.86113 15.1594C5.03449 12.7702 5.9423 10.493 7.46022 8.63977C8.97814 6.78655 11.0319 5.44797 13.3402 4.80739C15.6485 4.16681 18.0983 4.25557 20.3542 5.06151C22.6101 5.86745 24.5616 7.35115 25.9414 9.30935C27.3213 11.2676 28.0619 13.6045 28.0619 16H32.4463Z" fill="#1D88FA"/>
<mask id="path-2-inside-1_1158_1602" fill="white">
<path d="M21.437 31.5676C24.377 30.6613 26.9933 28.9265 28.9725 26.5712C30.9518 24.2158 32.21 21.3398 32.5965 18.2877L28.2468 17.7369C27.9662 19.9527 27.0528 22.0406 25.6159 23.7505C24.179 25.4604 22.2796 26.7198 20.1453 27.3778L21.437 31.5676Z"/>
</mask>
<path d="M21.437 31.5676C24.377 30.6613 26.9933 28.9265 28.9725 26.5712C30.9518 24.2158 32.21 21.3398 32.5965 18.2877L28.2468 17.7369C27.9662 19.9527 27.0528 22.0406 25.6159 23.7505C24.179 25.4604 22.2796 26.7198 20.1453 27.3778L21.437 31.5676Z" stroke="#1D88FA" stroke-width="2" mask="url(#path-2-inside-1_1158_1602)"/>
</svg>
