<svg width="33" height="32" viewBox="0 0 33 32" fill="none" xmlns="http://www.w3.org/2000/svg">
<path d="M29.4655 16.2187H16.4478V3.20099C16.4478 3.041 16.3169 2.91009 16.1569 2.91009H15.2115C13.3014 2.90697 11.4095 3.28156 9.64467 4.01232C7.87986 4.74308 6.27697 5.81558 4.9282 7.16813C3.59992 8.49231 2.54156 10.0619 1.81194 11.7898C1.0527 13.5819 0.663115 15.5088 0.666526 17.455C0.663398 19.3652 1.03799 21.257 1.76875 23.0218C2.49951 24.7866 3.57202 26.3895 4.92456 27.7383C6.25906 29.0728 7.81537 30.1237 9.54622 30.8546C11.3383 31.6138 13.2652 32.0034 15.2115 32C17.1216 32.0031 19.0135 31.6285 20.7783 30.8978C22.5431 30.167 24.146 29.0945 25.4948 27.7419C26.8293 26.4074 27.8801 24.8511 28.611 23.1203C29.3703 21.3282 29.7598 19.4013 29.7564 17.455V16.5096C29.7564 16.3496 29.6255 16.2187 29.4655 16.2187ZM23.7094 26.0293C22.5834 27.1465 21.248 28.0305 19.7798 28.6308C18.3116 29.231 16.7394 29.5357 15.1533 29.5273C11.9498 29.5128 8.93897 28.2583 6.67359 25.9929C4.39367 23.713 3.13917 20.6804 3.13917 17.455C3.13917 14.2297 4.39367 11.1971 6.67359 8.91716C8.65898 6.93177 11.2153 5.7209 13.9752 5.44455V18.6914H27.222C26.942 21.4658 25.7202 24.0366 23.7094 26.0293ZM32.6654 14.197L32.5709 13.1716C32.2618 9.82258 30.7746 6.66269 28.3819 4.27732C25.9876 1.88757 22.8342 0.408601 19.4659 0.0956465L18.4368 0.00110442C18.2659 -0.0134405 18.1205 0.117464 18.1205 0.288367V14.2551C18.1205 14.4151 18.2514 14.546 18.4114 14.546L32.3745 14.5097C32.5454 14.5097 32.68 14.3642 32.6654 14.197ZM20.5858 12.0807V2.7501C22.8764 3.22953 24.9785 4.36392 26.6365 6.01544C28.2983 7.67356 29.4364 9.78258 29.9092 12.0552L20.5858 12.0807Z" fill="#10CBF3"/>
</svg>
