<svg width="32" height="32" viewBox="0 0 32 32" fill="none" xmlns="http://www.w3.org/2000/svg">
<path fill-rule="evenodd" clip-rule="evenodd" d="M13.5849 29.5385H28.3077C28.6341 29.5385 28.9472 29.4088 29.178 29.178C29.4088 28.9472 29.5385 28.6341 29.5385 28.3077V11.0769H12.3077V11.079H9.84615V11.0769H2.46154V11.079H0V9.84615C0 9.51973 0.12967 9.20668 0.360484 8.97587C0.591298 8.74506 0.904349 8.61538 1.23077 8.61538H29.5385V3.69231C29.5385 3.36589 29.4088 3.05284 29.178 2.82202C28.9472 2.59121 28.6341 2.46154 28.3077 2.46154H3.69231C3.36589 2.46154 3.05284 2.59121 2.82202 2.82202C2.59121 3.05284 2.46154 3.36589 2.46154 3.69231V4.92308C2.46154 5.2495 2.33187 5.56255 2.10105 5.79336C1.87024 6.02418 1.55719 6.15385 1.23077 6.15385C0.904349 6.15385 0.591298 6.02418 0.360484 5.79336C0.12967 5.56255 0 5.2495 0 4.92308V3.69231C0 2.71305 0.38901 1.77389 1.08145 1.08145C1.77389 0.38901 2.71305 0 3.69231 0H28.3077C29.287 0 30.2261 0.38901 30.9185 1.08145C31.611 1.77389 32 2.71305 32 3.69231V28.3077C32 29.287 31.611 30.2261 30.9185 30.9185C30.2261 31.611 29.287 32 28.3077 32H13.5849V29.5385Z" fill="#FFA92E"/>
<path d="M15.4063 24.8673C15.1085 24.6457 14.6874 24.7076 14.4658 25.0054C14.344 25.1692 14.2136 25.3299 14.0782 25.4829C13.8324 25.7611 13.8585 26.1859 14.1366 26.4317C14.2645 26.5448 14.4233 26.6003 14.5816 26.6003C14.7675 26.6003 14.9526 26.5236 15.0854 26.3733C15.2457 26.1921 15.4001 26.0018 15.5444 25.8077C15.766 25.5099 15.7042 25.0888 15.4063 24.8673Z" fill="#FFA92E"/>
<path d="M16.5305 21.7147C16.168 21.6358 15.8097 21.8658 15.7307 22.2285C15.6873 22.4281 15.6348 22.628 15.5746 22.8228C15.465 23.1775 15.6637 23.5538 16.0183 23.6634C16.0844 23.6838 16.1513 23.6935 16.217 23.6935C16.504 23.6935 16.7698 23.5082 16.859 23.2196C16.9304 22.9884 16.9928 22.7512 17.0443 22.5145C17.1233 22.1518 16.8932 21.7937 16.5305 21.7147Z" fill="#FFA92E"/>
<path d="M12.1709 27.02C11.9925 27.1196 11.8077 27.2127 11.6218 27.2967C11.2834 27.4494 11.133 27.8476 11.2858 28.1859C11.3981 28.4345 11.6427 28.5816 11.8988 28.5816C11.9913 28.5816 12.0853 28.5624 12.1751 28.5219C12.3956 28.4222 12.6147 28.3118 12.8263 28.1937C13.1504 28.0128 13.2665 27.6033 13.0855 27.2791C12.9046 26.9551 12.4951 26.839 12.1709 27.02Z" fill="#FFA92E"/>
<path d="M7.93169 15.3001V20.399L5.46688 22.8638C5.2044 23.1263 5.2044 23.5519 5.46688 23.8144C5.59816 23.9457 5.77013 24.0113 5.94221 24.0113C6.11421 24.0113 6.28626 23.9456 6.41753 23.8144L9.07919 21.1527C9.20522 21.0267 9.27603 20.8557 9.27603 20.6775V15.3001C9.27603 14.9289 8.9751 14.6279 8.60386 14.6279C8.23262 14.6279 7.93169 14.9289 7.93169 15.3001Z" fill="#FFA92E"/>
<path d="M16.5354 13.5184C16.1641 13.5184 15.8632 13.8193 15.8632 14.1906V16.0571C14.2987 13.6034 11.5664 12.0732 8.60377 12.0732C6.30562 12.0732 4.14504 12.9682 2.51996 14.5932C0.894961 16.2183 0 18.3789 0 20.677C0 22.9752 0.894961 25.1358 2.51996 26.7608C4.14504 28.3858 6.30562 29.2808 8.60377 29.2808C8.60945 29.2808 8.61493 29.2801 8.62058 29.2799C8.62622 29.2801 8.6317 29.2808 8.63738 29.2808C8.87963 29.2808 9.12427 29.2706 9.36457 29.2505C9.7345 29.2195 10.0093 28.8945 9.97833 28.5246C9.94731 28.1546 9.62275 27.8797 9.25238 27.9108C9.04925 27.9278 8.84236 27.9364 8.63738 27.9364C8.6317 27.9364 8.62622 27.9372 8.62058 27.9373C8.61493 27.9372 8.60945 27.9364 8.60377 27.9364C4.6009 27.9364 1.34434 24.6799 1.34434 20.677C1.34434 16.6741 4.6009 13.4176 8.60377 13.4176C11.1835 13.4176 13.5562 14.7926 14.8528 16.9801H13.0046C12.6333 16.9801 12.3324 17.281 12.3324 17.6523C12.3324 18.0235 12.6333 18.3244 13.0046 18.3244H15.0566C15.466 18.3244 15.8489 18.2094 16.175 18.0101C16.196 17.9981 16.2161 17.9852 16.2354 17.9714C16.8203 17.5865 17.2075 16.9245 17.2075 16.1735V14.1906C17.2075 13.8193 16.9066 13.5184 16.5354 13.5184Z" fill="#FFA92E"/>
</svg>
