<svg width="32" height="32" viewBox="0 0 32 32" fill="none" xmlns="http://www.w3.org/2000/svg">
<path fill-rule="evenodd" clip-rule="evenodd" d="M13.5849 29.5385H28.3077C28.6341 29.5385 28.9472 29.4088 29.178 29.178C29.4088 28.9472 29.5385 28.6341 29.5385 28.3077V11.0769H12.3077V11.079H9.84615V11.0769H2.46154V11.079H0V9.84615C0 9.51973 0.12967 9.20668 0.360484 8.97587C0.591298 8.74506 0.904349 8.61538 1.23077 8.61538H29.5385V3.69231C29.5385 3.36589 29.4088 3.05284 29.178 2.82202C28.9472 2.59121 28.6341 2.46154 28.3077 2.46154H3.69231C3.36589 2.46154 3.05284 2.59121 2.82202 2.82202C2.59121 3.05284 2.46154 3.36589 2.46154 3.69231V4.92308C2.46154 5.2495 2.33187 5.56255 2.10105 5.79336C1.87024 6.02418 1.55719 6.15385 1.23077 6.15385C0.904349 6.15385 0.591298 6.02418 0.360484 5.79336C0.12967 5.56255 0 5.2495 0 4.92308V3.69231C0 2.71305 0.38901 1.77389 1.08145 1.08145C1.77389 0.38901 2.71305 0 3.69231 0H28.3077C29.287 0 30.2261 0.38901 30.9185 1.08145C31.611 1.77389 32 2.71305 32 3.69231V28.3077C32 29.287 31.611 30.2261 30.9185 30.9185C30.2261 31.611 29.287 32 28.3077 32H13.5849V29.5385Z" fill="#F86672"/>
<path d="M16.381 16.9965C15.6788 15.5081 14.5667 14.2583 13.1657 13.3814C11.217 12.1652 8.9122 11.7788 6.67123 12.2962C4.43363 12.8102 2.52864 14.1676 1.3124 16.1162C0.0928091 18.0649 -0.293564 20.3697 0.22384 22.6107C0.741244 24.8483 2.09859 26.7533 4.0439 27.9695C5.41468 28.8262 6.98705 29.2798 8.59638 29.2798H8.70053C10.3031 29.2597 11.8621 28.796 13.2127 27.9426C13.6058 27.694 13.72 27.1766 13.4714 26.7835C13.2228 26.3904 12.7054 26.2762 12.3123 26.5248C11.2271 27.2136 9.97053 27.5865 8.68037 27.6033C7.35663 27.6201 6.06312 27.2539 4.93423 26.5517C3.36522 25.5706 2.2733 24.0386 1.86005 22.2377C1.4468 20.4302 1.75589 18.5756 2.73695 17.0066C4.75953 13.7711 9.03987 12.7834 12.2753 14.8059C13.4042 15.5115 14.2979 16.5161 14.8623 17.7121C15.4133 18.878 15.6284 20.1715 15.4839 21.4482C15.4335 21.9085 15.7628 22.3251 16.2264 22.3755C16.6867 22.4259 17.1033 22.0966 17.1537 21.633C17.3318 20.0505 17.063 18.4446 16.381 16.9965Z" fill="#F86672"/>
<path d="M11.5194 17.7587C11.1902 17.4294 10.6593 17.4294 10.3301 17.7587L8.60316 19.4889L6.87624 17.762C6.54698 17.4328 6.01614 17.4328 5.68688 17.762C5.35763 18.0913 5.35763 18.6221 5.68688 18.9514L7.4138 20.6783L5.68688 22.4052C5.35763 22.7345 5.35763 23.2653 5.68688 23.5946C5.85151 23.7592 6.06654 23.8398 6.28156 23.8398C6.49659 23.8398 6.71161 23.7592 6.87624 23.5946L8.60316 21.8677L10.3301 23.5946C10.4947 23.7592 10.7097 23.8398 10.9248 23.8398C11.1398 23.8398 11.3548 23.7592 11.5194 23.5946C11.8487 23.2653 11.8487 22.7345 11.5194 22.4052L9.79252 20.6749L11.5194 18.948C11.8487 18.6188 11.8487 18.0879 11.5194 17.7587Z" fill="#F86672"/>
</svg>
