<svg width="32" height="32" viewBox="0 0 32 32" fill="none" xmlns="http://www.w3.org/2000/svg">
<path d="M16 0C24.8368 0 32 7.1632 32 16C32 24.8368 24.8368 32 16 32C7.1632 32 0 24.8368 0 16C0 7.1632 7.1632 0 16 0ZM16 3.2C12.6052 3.2 9.3495 4.54857 6.94903 6.94903C4.54857 9.3495 3.2 12.6052 3.2 16C3.2 19.3948 4.54857 22.6505 6.94903 25.051C9.3495 27.4514 12.6052 28.8 16 28.8C19.3948 28.8 22.6505 27.4514 25.051 25.051C27.4514 22.6505 28.8 19.3948 28.8 16C28.8 12.6052 27.4514 9.3495 25.051 6.94903C22.6505 4.54857 19.3948 3.2 16 3.2ZM16 22.4C16.4243 22.4 16.8313 22.5686 17.1314 22.8686C17.4314 23.1687 17.6 23.5757 17.6 24C17.6 24.4243 17.4314 24.8313 17.1314 25.1314C16.8313 25.4314 16.4243 25.6 16 25.6C15.5757 25.6 15.1687 25.4314 14.8686 25.1314C14.5686 24.8313 14.4 24.4243 14.4 24C14.4 23.5757 14.5686 23.1687 14.8686 22.8686C15.1687 22.5686 15.5757 22.4 16 22.4ZM16 7.2C17.3476 7.20004 18.6532 7.66937 19.6925 8.52736C20.7317 9.38535 21.4397 10.5785 21.6949 11.9017C21.9501 13.225 21.7365 14.5958 21.0909 15.7787C20.4452 16.9617 19.4078 17.8828 18.1568 18.384C17.9715 18.4521 17.8045 18.5622 17.6688 18.7056C17.5984 18.7856 17.5872 18.888 17.5888 18.9936L17.6 19.2C17.5995 19.6078 17.4434 20.0001 17.1634 20.2966C16.8835 20.5931 16.5009 20.7716 16.0938 20.7955C15.6867 20.8194 15.2858 20.6869 14.9731 20.4252C14.6603 20.1634 14.4594 19.7922 14.4112 19.3872L14.4 19.2V18.8C14.4 16.9552 15.888 15.848 16.9664 15.4144C17.4053 15.2391 17.7882 14.9476 18.0739 14.5712C18.3596 14.1947 18.5374 13.7476 18.5882 13.2777C18.6389 12.8078 18.5607 12.333 18.362 11.9042C18.1632 11.4754 17.8514 11.1089 17.4601 10.844C17.0687 10.579 16.6126 10.4257 16.1406 10.4004C15.6687 10.3752 15.1988 10.4789 14.7814 10.7006C14.364 10.9222 14.0149 11.2534 13.7715 11.6585C13.5281 12.0636 13.3997 12.5274 13.4 13C13.4 13.4243 13.2314 13.8313 12.9314 14.1314C12.6313 14.4314 12.2243 14.6 11.8 14.6C11.3757 14.6 10.9687 14.4314 10.6686 14.1314C10.3686 13.8313 10.2 13.4243 10.2 13C10.2 11.4617 10.8111 9.98649 11.8988 8.89878C12.9865 7.81107 14.4617 7.2 16 7.2Z" fill="#FFA92E"/>
</svg>
