<svg width="33" height="32" viewBox="0 0 33 32" fill="black" xmlns="http://www.w3.org/2000/svg">
<path d="M27.7125 4.70668C25.0271 2.01599 21.4609 0.365876 17.6572 0.0539835C13.8535 -0.257909 10.0626 0.78895 6.96837 3.00573C3.87414 5.22252 1.68025 8.46329 0.782421 12.1435C-0.115408 15.8237 0.341931 19.7011 2.07194 23.0762L0.37372 31.2556C0.356099 31.337 0.3556 31.4212 0.372254 31.5028C0.388908 31.5844 0.422357 31.6617 0.470509 31.7299C0.541049 31.8334 0.641739 31.9131 0.759134 31.9583C0.876529 32.0036 1.00504 32.0122 1.12751 31.9831L9.208 30.083C12.6005 31.7558 16.4813 32.1804 20.1597 31.2811C23.8381 30.3817 27.0756 28.2169 29.2962 25.1717C31.5167 22.1266 32.5763 18.3986 32.2863 14.6512C31.9963 10.9037 30.3756 7.37989 27.7125 4.70668ZM25.193 24.6562C23.335 26.4943 20.9424 27.7077 18.3525 28.1253C15.7625 28.5429 13.1058 28.1438 10.7566 26.984L9.63036 26.4312L4.67647 27.5951L4.69114 27.534L5.7177 22.5874L5.16629 21.5078C3.96598 19.1691 3.54255 16.5136 3.95667 13.9215C4.37079 11.3295 5.6012 8.93398 7.47165 7.07816C9.8219 4.74725 13.0091 3.43782 16.3323 3.43782C19.6556 3.43782 22.8428 4.74725 25.193 7.07816C25.213 7.10093 25.2346 7.12232 25.2575 7.14217C27.5787 9.47909 28.8744 12.6316 28.8623 15.9124C28.8502 19.1932 27.5313 22.3362 25.193 24.6562Z" fill="#28A645"/>
<path d="M24.753 21.0278C24.1458 21.9764 23.1867 23.1374 21.9812 23.4255C19.8695 23.9318 16.6285 23.443 12.5955 19.7126L12.5457 19.669C8.99965 16.4071 8.07868 13.6923 8.30159 11.539C8.42478 10.3169 9.45134 9.21118 10.3166 8.48955C10.4534 8.37372 10.6156 8.29126 10.7902 8.24875C10.9649 8.20624 11.1472 8.20487 11.3225 8.24474C11.4978 8.28461 11.6612 8.36462 11.7998 8.47837C11.9383 8.59212 12.0481 8.73645 12.1204 8.89983L13.4256 11.8096C13.5104 11.9983 13.5418 12.2063 13.5165 12.4114C13.4912 12.6164 13.4101 12.8108 13.2819 12.9735L12.6219 13.8232C12.4803 13.9986 12.3949 14.2121 12.3766 14.4361C12.3583 14.6601 12.408 14.8845 12.5193 15.0802C12.8888 15.7233 13.7746 16.669 14.7572 17.5448C15.86 18.5342 17.0831 19.4391 17.8574 19.7475C18.0646 19.8315 18.2924 19.852 18.5114 19.8064C18.7305 19.7607 18.9307 19.651 19.0863 19.4915L19.8519 18.7262C19.9996 18.5817 20.1833 18.4786 20.3842 18.4275C20.5852 18.3764 20.7962 18.3791 20.9957 18.4352L24.096 19.3082C24.267 19.3602 24.4237 19.4504 24.5542 19.5717C24.6847 19.6931 24.7855 19.8424 24.8489 20.0084C24.9123 20.1743 24.9366 20.3525 24.92 20.5291C24.9034 20.7058 24.8462 20.8764 24.753 21.0278Z" fill="#28A645"/>
</svg>
